<svg width="50" height="50" xmlns="http://www.w3.org/2000/svg">

 <title>connectors</title>
 <g>
  <title>Layer 1</title>
  <path id="svg_1" fill="#00a6d1" d="m22.14997,14.00497a0.44,0.44 0 0 0 -0.32,-0.21c-0.1,0 -0.16,0.06 -0.26,0.11c-1,0.73 -2.21,3.83 -3.26,7.93l0.94,0l5.57,0.11c-0.47,-1.89 -0.95,-3.47 -1.37,-4.78a13.43,13.43 0 0 0 -1.3,-3.16z" class="cls-1"/>
  <path stroke="null" id="svg_2" fill="#00a6d1" d="m24.87496,0.875a23.99996,24.06246 0 1 0 23.99996,24.06246l0,0a24.0411,24.10371 0 0 0 -23.99996,-24.06246zm17.29369,24.57121l0,0l0,0.06875l-0.15086,0a1.70057,1.705 0 0 1 -0.576,0.15125l-11.51998,0c0,0.3575 0.21943,0.78375 0.288,1.2925c0.64457,2.75 2.304,9.89998 4.03199,9.89998l0.06857,0c1.37143,0 2.09828,-2.02125 3.60685,-6.35249l0,-0.06875c0.21943,-0.715 0.50743,-1.5125 0.79543,-2.31l0,-0.22l0,0a0.60343,0.605 0 0 1 0.72686,-0.3575a0.60343,0.605 0 0 1 0.35657,0.72875l0,0l0,0.22a19.35082,19.40122 0 0 0 -0.50743,2.02125c-0.93257,3.80874 -2.304,9.54248 -5.84228,9.54248l0,0c-2.304,0 -3.67542,-3.68499 -4.25142,-5.26624c-1.08343,-2.96999 -1.94743,-6.07749 -2.74285,-9.10248l-10.43655,0l-2.112,6.97124l0,0a1.13828,1.14125 0 0 1 -1.50857,0.37125a1.04228,1.045 0 0 1 -0.50743,-0.94875l0,0l0.13714,-0.7975c0.288,-1.80125 0.65828,-3.68499 1.08343,-5.49999l-4.52571,0a1.71428,1.71875 0 0 1 -1.37143,-1.66375a1.70057,1.705 0 0 1 1.37143,-1.66375l0.72686,0l4.53942,0.06875c2.304,-9.39123 4.96456,-14.16248 7.92684,-14.23123c3.16799,0 5.48571,7.30124 7.41942,14.38247l0,0c3.89485,0 7.99542,0.22 12.04112,0.50875l0.42514,0a1.248,1.25125 0 0 1 1.01486,1.5125c-0.15086,0.28875 -0.288,0.50875 -0.43886,0.7975l-0.06857,-0.055z" class="cls-1"/>
 </g>
</svg>