<svg width="192" height="192" viewBox="0 0 192 192" fill="none" xmlns="http://www.w3.org/2000/svg">
<path d="M139.771 54.7577V54.5657C138.153 51.9532 135.621 50.0367 132.667 49.1896C131.175 48.7698 129.613 48.6555 128.076 48.8534C126.538 49.0514 125.057 49.5575 123.72 50.3416C121.031 51.9288 119.073 54.5088 118.269 57.5257C117.464 60.5425 117.877 63.7547 119.419 66.4699C121.011 69.1327 123.583 71.0659 126.583 71.8555C129.583 72.645 132.774 72.2281 135.47 70.694C138.122 69.1203 140.052 66.57 140.846 63.5899C141.519 60.59 141.068 57.4474 139.579 54.7577H139.771ZM73.6452 63.7818C80.4395 64.8878 86.7208 68.0822 91.6167 72.9212C92.3703 73.6829 93.0757 74.4909 93.7287 75.3405L105.518 68.5052C103.731 62.9475 103.9 56.9458 105.995 51.4971C108.091 46.0484 111.987 41.4807 117.038 38.5526H117.23C120.11 36.8959 123.292 35.8318 126.59 35.423C129.887 35.0141 133.233 35.2687 136.43 36.1718C142.886 37.9587 148.395 42.1864 151.79 47.9608C155.08 53.79 155.949 60.6776 154.211 67.1413C152.473 73.605 148.267 79.1279 142.498 82.5214L140.846 83.4814H140.654C135.201 86.053 129.02 86.6371 123.182 85.1326C118.425 83.8251 114.154 81.1556 110.894 77.4525L99.3736 84.2878C100.776 87.9664 101.492 91.8711 101.486 95.808C101.479 99.7437 100.763 103.646 99.3736 107.328L110.894 114.048C114.167 110.36 118.433 107.694 123.182 106.368C126.395 105.502 129.749 105.286 133.046 105.735C136.343 106.183 139.518 107.286 142.382 108.979L142.766 109.171C148.486 112.567 152.629 118.09 154.287 124.532C155.99 131.012 155.095 137.902 151.79 143.732V144.116C148.367 149.855 142.824 154.018 136.358 155.706C129.893 157.394 123.022 156.473 117.23 153.14C114.341 151.494 111.81 149.287 109.785 146.65C107.761 144.012 106.284 140.996 105.441 137.78C104.106 133.052 104.24 128.03 105.825 123.38L93.9975 116.544C93.3447 117.428 92.5767 118.196 91.8855 118.964C87.0658 123.773 80.8626 126.956 74.1444 128.065V141.697C78.9445 142.736 83.3439 145.136 86.8166 148.609C89.1886 150.958 91.0715 153.754 92.3565 156.836C93.6415 159.917 94.3031 163.223 94.3031 166.561C94.3031 169.9 93.6415 173.205 92.3565 176.287C91.0715 179.368 89.1886 182.164 86.8166 184.513C84.4672 186.885 81.6711 188.768 78.5897 190.053C75.5083 191.338 72.2029 192 68.8643 192C65.5257 192 62.2203 191.338 59.1389 190.053C56.0575 188.768 53.2614 186.885 50.912 184.513C48.54 182.164 46.6571 179.368 45.3721 176.287C44.0871 173.205 43.4255 169.9 43.4255 166.561C43.4255 163.223 44.0871 159.917 45.3721 156.836C46.6571 153.754 48.54 150.958 50.912 148.609C54.3847 145.136 58.7841 142.736 63.5842 141.697V128.065C56.7515 127.059 50.4236 123.881 45.5359 119.002C39.4296 112.889 35.9998 104.602 35.9998 95.9616C35.9998 87.3212 39.4296 79.0342 45.5359 72.9212C50.3165 68.1001 56.4994 64.9145 63.2002 63.8203V50.2648C58.3946 49.2399 53.9914 46.8382 50.528 43.3527C48.1571 41.0066 46.275 38.2137 44.9905 35.1355C43.7061 32.0573 43.0447 28.7551 43.0447 25.4196C43.0447 22.0842 43.7061 18.7819 44.9905 15.7037C46.275 12.6255 48.1571 9.83263 50.528 7.48653C52.8774 5.11453 55.6735 3.23157 58.7549 1.94658C61.8363 0.661577 65.1417 0 68.4803 0C71.8188 0 75.1243 0.661577 78.2057 1.94658C81.287 3.23157 84.0832 5.11453 86.4326 7.48653C88.8034 9.83263 90.6855 12.6255 91.97 15.7037C93.2545 18.7819 93.9159 22.0842 93.9159 25.4196C93.9159 28.7551 93.2545 32.0573 91.97 35.1355C90.6855 38.2137 88.8034 41.0066 86.4326 43.3527C82.9495 46.8119 78.5545 49.2092 73.7604 50.2648V63.8203L73.6452 63.7818ZM80.4805 83.827C77.2658 80.631 72.9174 78.8364 68.3843 78.8349C63.8553 78.857 59.5144 80.6485 56.2881 83.827C54.6888 85.4145 53.4233 87.3059 52.566 89.3899C51.7087 91.4739 51.2769 93.7083 51.296 95.9616C51.296 100.494 53.0964 104.84 56.301 108.045C59.5057 111.249 63.8522 113.05 68.3843 113.05C72.9164 113.05 77.2629 111.249 80.4675 108.045C83.6722 104.84 85.4726 100.494 85.4726 95.9616C85.4713 93.7341 85.0296 91.5288 84.1729 89.4726C83.3161 87.4165 82.0613 85.55 80.4805 83.9806V83.827ZM132.59 142.542C135.604 141.732 138.182 139.775 139.771 137.089L139.963 136.705C141.379 134.082 141.723 131.013 140.923 128.141C140.534 126.644 139.851 125.238 138.915 124.005C137.979 122.773 136.808 121.738 135.47 120.96H135.278C133.253 119.818 130.935 119.303 128.616 119.479C126.298 119.655 124.084 120.514 122.254 121.949C120.425 123.384 119.062 125.329 118.339 127.539C117.615 129.749 117.563 132.123 118.19 134.362C118.999 137.376 120.957 139.954 123.643 141.543C124.98 142.327 126.462 142.833 127.999 143.031C129.536 143.229 131.098 143.115 132.59 142.695V142.542ZM68.5763 178.254C71.7023 178.252 74.6996 177.009 76.9092 174.798C79.1053 172.61 80.3475 169.642 80.3653 166.542C80.3795 164.992 80.0807 163.455 79.4868 162.023C78.893 160.591 78.0163 159.294 76.9092 158.209C74.6996 155.998 71.7023 154.755 68.5763 154.753C67.0392 154.749 65.5168 155.053 64.0989 155.646C62.6809 156.24 61.3961 157.111 60.3201 158.209C58.1089 160.419 56.8658 163.416 56.8641 166.542C56.8602 168.079 57.164 169.601 57.7575 171.019C58.3511 172.437 59.2224 173.722 60.3201 174.798C61.3961 175.896 62.6809 176.767 64.0989 177.361C65.5168 177.954 67.0392 178.258 68.5763 178.254ZM76.9092 16.9714C74.6996 14.7602 71.7023 13.5171 68.5763 13.5154C67.0392 13.5115 65.5168 13.8153 64.0989 14.4089C62.6809 15.0024 61.3961 15.8737 60.3201 16.9714C58.1089 19.1886 56.8671 22.1922 56.8671 25.3236C56.8671 28.455 58.1089 31.4586 60.3201 33.6757C61.3961 34.7735 62.6809 35.6448 64.0989 36.2383C65.5168 36.8319 67.0392 37.1357 68.5763 37.1318C71.7023 37.1301 74.6996 35.887 76.9092 33.6757C78.021 32.5862 78.9004 31.2827 79.4944 29.8439C80.0884 28.4051 80.3847 26.8609 80.3653 25.3044C80.3976 23.7519 80.1072 22.2095 79.5122 20.7751C78.9173 19.3406 78.0309 18.0454 76.9092 16.9714Z" fill="black"/>
</svg>
