<svg width="192" height="192" viewBox="0 0 192 192" fill="none" xmlns="http://www.w3.org/2000/svg">
<g clip-path="url(#clip0)">
<path d="M173.528 149.721C170.66 156.244 167.134 162.457 163.003 168.263C159.222 174.078 154.789 179.443 149.791 184.252C145.229 188.764 139.178 191.455 132.772 191.821C127.31 191.587 121.944 190.31 116.962 188.059C111.599 185.67 105.813 184.376 99.9434 184.252C93.8977 184.352 87.9314 185.646 82.3871 188.059C77.6148 190.216 72.5116 191.548 67.294 192C60.6473 191.842 54.3342 189.056 49.7377 184.252C44.4726 179.25 39.7992 173.66 35.8091 167.591C29.5339 158.612 24.6143 148.758 21.2086 138.346C17.2336 127.2 15.1449 115.469 15.0281 103.636C14.6753 92.004 17.5924 80.5062 23.4479 70.4492C27.6316 63.2055 33.605 57.157 40.796 52.8832C47.987 48.6094 56.1548 46.2533 64.5172 46.0406C70.8102 46.4443 76.9818 47.9606 82.7454 50.5192C87.3687 52.5911 92.2262 54.0949 97.2114 54.9979C102.665 53.8234 108.001 52.1595 113.155 50.0266C120.079 47.1797 127.529 45.8362 135.011 46.0853C142.112 46.2917 149.072 48.1179 155.359 51.4245C161.646 54.7311 167.095 59.4307 171.288 65.1644C164.629 68.6745 159.086 73.9793 155.286 80.4779C151.487 86.9765 149.583 94.4093 149.791 101.934C149.769 107.668 150.931 113.344 153.205 118.608C155.478 123.871 158.814 128.609 163.003 132.523C166.902 136.299 171.454 139.334 176.439 141.481C175.715 144.541 174.741 147.537 173.528 150.438V149.721ZM136.4 3.89641C136.34 13.8398 132.608 23.4103 125.92 30.7684C117.5 40.5766 107.333 46.2197 96.1814 45.3687C96.092 44.1612 96.092 42.9486 96.1814 41.741C96.4712 31.6383 100.436 21.9883 107.333 14.6004C111.107 10.3799 115.671 6.941 120.769 4.47866C125.566 1.96269 130.821 0.439475 136.221 0C136.306 1.31235 136.306 2.62882 136.221 3.94117L136.4 3.89641Z" fill="#47474A"/>
</g>
<defs>
<clipPath id="clip0">
<rect width="192" height="192" fill="white"/>
</clipPath>
</defs>
</svg>
