<svg width="192" height="192" viewBox="0 0 192 192" fill="none" xmlns="http://www.w3.org/2000/svg">
<g clip-path="url(#clip0)">
<path d="M10.7286 60.8097L39.1381 114.882C40.2116 116.822 41.7499 118.465 43.615 119.663C45.4801 120.861 47.6134 121.578 49.8238 121.748H107.758C111.707 121.748 113.337 118.744 111.406 115.054L82.8681 60.638C81.7784 58.7392 80.2368 57.1386 78.3803 55.9782C76.5237 54.8179 74.4095 54.1337 72.2252 53.9863H14.2477H14.2047C10.4282 53.9863 8.92619 57.0333 10.8144 60.681" fill="#75B82C"/>
<path d="M120.805 123.851L137.971 155.951C138.621 157.089 139.548 158.043 140.666 158.726C141.784 159.409 143.056 159.798 144.365 159.857L178.696 159.513C181.1 159.513 182.044 157.711 180.842 155.522L163.676 123.422C163.014 122.295 162.084 121.349 160.969 120.668C159.853 119.987 158.587 119.591 157.282 119.517L122.736 119.86C120.461 119.86 119.56 121.706 120.719 123.894" fill="#75B82C"/>
<path d="M121.019 1.97403L86.473 46.2619C85.2967 48.0455 84.6135 50.1086 84.4929 52.2418C84.3723 54.3749 84.8185 56.502 85.7863 58.4068L114.668 112.307C116.599 115.955 120.118 116.599 122.478 113.466L156.81 69.1354C157.983 67.3584 158.664 65.3026 158.784 63.177C158.905 61.0514 158.461 58.9317 157.497 57.0335L128.615 3.13275C128.256 2.26707 127.666 1.51686 126.909 0.964295C126.152 0.411731 125.258 0.078143 124.324 0C123.649 0.0639596 122.997 0.273583 122.412 0.614422C121.826 0.955261 121.322 1.41915 120.933 1.97403" fill="#3D90D5"/>
<path d="M112.908 124.409L92.3522 150.802C91.6488 151.858 91.2385 153.082 91.1631 154.349C91.0877 155.615 91.3499 156.879 91.923 158.011L109.089 190.111C110.29 192.3 112.351 192.643 113.767 190.841L134.323 164.406C135.026 163.35 135.436 162.126 135.512 160.859C135.587 159.592 135.325 158.328 134.752 157.196L117.586 125.096C117.379 124.562 117.022 124.099 116.557 123.764C116.092 123.429 115.541 123.235 114.968 123.208C114.563 123.243 114.172 123.37 113.822 123.578C113.473 123.786 113.176 124.07 112.951 124.409" fill="#3D90D5"/>
</g>
<defs>
<clipPath id="clip0">
<rect width="192" height="192" fill="white"/>
</clipPath>
</defs>
</svg>
