<?xml version="1.0" encoding="utf-8"?>
<!-- Generator: Adobe Illustrator 24.0.1, SVG Export Plug-In . SVG Version: 6.00 Build 0)  -->
<svg version="1.1" id="Layer_1" xmlns="http://www.w3.org/2000/svg" xmlns:xlink="http://www.w3.org/1999/xlink" x="0px" y="0px"
     viewBox="0 0 100 100" style="enable-background:new 0 0 100 100;" xml:space="preserve">
<style type="text/css">
	.st0{fill:#252F3E;}
	.st1{fill-rule:evenodd;clip-rule:evenodd;fill:#FF9900;}
	.st2{fill:#808080;}
</style>
    <title>connectors</title>
    <g>
	<path class="st0" d="M66.7,50.7c-0.9,0-1.7-0.1-2.5-0.3c-0.7-0.1-1.3-0.3-1.9-0.7c-0.2-0.1-0.4-0.2-0.5-0.4c0-0.2,0-0.3,0-0.5V48
		c0-0.3,0-0.5,0.4-0.5h0.3h0.4c0.6,0.2,1.2,0.4,1.8,0.6c0.6,0.1,1.3,0.1,1.9,0c0.8,0.1,1.7-0.1,2.4-0.6c0.5-0.3,0.9-0.9,0.8-1.5
		c0-0.4-0.1-0.8-0.4-1.1c-0.5-0.4-1-0.7-1.7-0.8l-2.3-0.8c-1-0.2-1.9-0.8-2.6-1.6C62.3,41,62,40.1,62,39.2c0-0.6,0.1-1.2,0.4-1.8
		c0.3-0.5,0.7-1,1.2-1.3c0.5-0.4,1.1-0.7,1.7-0.8c0.7-0.2,1.4-0.3,2.1-0.3h1.1l1.1,0.2l0.9,0.2c0.2,0.1,0.5,0.2,0.7,0.3
		c0.2,0.1,0.4,0.2,0.5,0.4c0.1,0.2,0.1,0.4,0,0.6v0.8c0,0.3,0,0.5-0.4,0.5c-0.2,0-0.4-0.1-0.6-0.2c-1-0.4-2-0.7-3.1-0.6
		c-0.7-0.1-1.5,0.1-2.2,0.4c-0.5,0.3-0.8,0.9-0.8,1.5c-0.2,0.6,0,1.2,0.5,1.6c0.5,0.4,1.1,0.7,1.8,0.9l2.3,0.7
		c1,0.2,1.9,0.8,2.5,1.5c0.5,0.7,0.7,1.5,0.7,2.3c0,0.7-0.1,1.3-0.4,1.9c-0.3,0.6-0.7,1-1.2,1.4c-0.5,0.4-1.1,0.7-1.8,0.9
		C68.3,50.6,67.5,50.7,66.7,50.7z M45.7,50.3c-0.2,0-0.4-0.1-0.6-0.2c-0.2-0.2-0.3-0.4-0.4-0.6L41.1,37c0-0.2,0-0.4,0-0.7
		c0-0.2,0.1-0.4,0.3-0.4h1.7c0.2-0.1,0.4-0.1,0.6,0c0.2,0.2,0.3,0.4,0.3,0.7l2.8,10.7l2.5-10.7c0-0.4,0.4-0.8,0.8-0.8c0,0,0,0,0,0
		h1.5c0.2-0.1,0.4-0.1,0.7,0c0.2,0.2,0.3,0.4,0.3,0.7l2.6,11l2.8-11c0-0.3,0.1-0.5,0.3-0.7c0.2-0.1,0.4-0.1,0.6,0h1.5
		c0.2,0,0.4,0.1,0.4,0.3l0,0c0,0.1,0,0.2,0,0.3c0,0.1,0,0.3,0,0.4l-4,12.5c-0.1,0.5-0.5,0.8-1,0.8h-1.8c-0.2,0-0.5-0.1-0.7-0.2
		c-0.2-0.2-0.3-0.4-0.3-0.7l-2.5-10.4l-2.5,10.4c0,0.3-0.1,0.5-0.3,0.7c-0.2,0.1-0.4,0.2-0.7,0.2L45.7,50.3z M32.7,48.6
		c0.6,0,1.1-0.1,1.7-0.3c0.6-0.2,1.1-0.6,1.6-1.1c0.3-0.3,0.4-0.6,0.6-1c0.1-0.5,0.1-1,0-1.4v-0.7l-1.5-0.3c-0.5,0-1,0-1.5,0
		c-0.9-0.1-1.7,0.2-2.4,0.7c-0.6,0.5-0.9,1.2-0.8,1.9c0,0.6,0.2,1.3,0.6,1.7c0.5,0.4,1.1,0.6,1.8,0.6L32.7,48.6z M39.3,46.1
		c0,0.5,0.1,1,0.2,1.4c0.1,0.4,0.3,0.8,0.5,1.2c0,0.1,0,0.3,0,0.4c0,0.2-0.1,0.4-0.3,0.5l-1.1,0.6c-0.1,0.1-0.3,0.1-0.4,0
		c-0.2,0-0.4-0.1-0.5-0.2c-0.2-0.2-0.4-0.5-0.6-0.8c-0.2-0.3-0.4-0.6-0.5-1c-1.2,1.4-2.9,2.3-4.8,2.2c-1.2,0.1-2.4-0.4-3.3-1.2
		c-0.8-0.8-1.3-1.9-1.2-3.1c-0.1-1.3,0.5-2.5,1.5-3.3c1.1-0.9,2.6-1.4,4-1.3h1.7c0.6,0,1.2,0.2,1.9,0.4v-1.2
		c0.1-0.9-0.2-1.9-0.8-2.6c-0.8-0.6-1.7-0.8-2.6-0.7c-0.6,0-1.2,0.1-1.8,0.2c-0.6,0.1-1.2,0.3-1.8,0.6L29,38.4h-0.3
		c-0.2,0-0.3,0-0.3-0.5v-0.8c-0.1-0.2-0.1-0.4,0-0.6c0.1-0.1,0.3-0.3,0.4-0.3c1.4-0.7,3-1,4.6-1c1.5-0.1,3.1,0.3,4.3,1.3
		c1.2,1.1,1.8,2.7,1.7,4.3v5.3H39.3z"/>
        <path class="st1" d="M69.8,59c-5.9,3.9-12.8,6-19.9,6c-8.9,0.1-17.6-3.2-24.2-9.2c-0.5-0.5,0-1.1,0.5-0.7
		c7.4,4.1,15.7,6.2,24.2,6.2c6.3,0,12.5-1.3,18.3-3.7C69.9,57.1,70.7,58.1,69.8,59z"/>
        <path class="st1" d="M72,56.3c-0.7-0.9-4.5-0.4-6.3-0.2c-0.5,0-0.6-0.4,0-0.7c2.6-1.6,5.8-1.9,8.7-0.8c0.4,3.1-0.8,6.1-3.2,8.1
		c-0.4,0.4-0.9,0-0.7-0.3C71.3,60.7,72.7,57.1,72,56.3z"/>
</g>
    <g>
	<path class="st2" d="M34,79.9h-0.5L33,78.8h-1.9l-0.4,1.1h-0.5l1.6-3.9h0.6L34,79.9z M31.3,78.3h1.5l-0.8-1.9L31.3,78.3z"/>
        <path class="st2" d="M36.3,77.8c-0.2-0.1-0.5-0.2-0.8-0.2c-0.4,0-0.6,0.2-0.6,0.4c0,0.2,0.2,0.3,0.5,0.3l0.3,0
		c0.6,0.1,0.9,0.3,0.9,0.7c0,0.5-0.4,0.8-1.2,0.8c-0.3,0-0.8-0.1-1.1-0.3l0.2-0.3c0.2,0.2,0.5,0.3,0.9,0.3c0.4,0,0.7-0.1,0.7-0.4
		c0-0.2-0.2-0.3-0.5-0.4l-0.3,0c-0.6-0.1-0.9-0.3-0.9-0.7c0-0.5,0.4-0.8,1.1-0.8c0.4,0,0.8,0.1,1.1,0.3L36.3,77.8z"/>
        <path class="st2" d="M38.9,77.8c-0.2-0.1-0.5-0.2-0.8-0.2c-0.4,0-0.6,0.2-0.6,0.4c0,0.2,0.2,0.3,0.5,0.3l0.3,0
		c0.6,0.1,0.9,0.3,0.9,0.7c0,0.5-0.4,0.8-1.2,0.8c-0.3,0-0.8-0.1-1.1-0.3l0.2-0.3c0.2,0.2,0.5,0.3,0.9,0.3c0.4,0,0.7-0.1,0.7-0.4
		c0-0.2-0.2-0.3-0.5-0.4l-0.3,0C37.3,78.7,37,78.4,37,78c0-0.5,0.4-0.8,1.1-0.8c0.4,0,0.8,0.1,1,0.3L38.9,77.8z"/>
        <path class="st2" d="M42.1,78.5c0,0.1,0,0.1,0,0.2H40c0.1,0.5,0.4,0.8,0.9,0.8c0.3,0,0.6-0.1,0.8-0.3l0.2,0.3
		c-0.3,0.3-0.7,0.4-1.1,0.4c-0.8,0-1.3-0.6-1.3-1.4c0-0.8,0.6-1.4,1.3-1.4C41.6,77.2,42.1,77.7,42.1,78.5z M40,78.3h1.6
		c-0.1-0.5-0.4-0.8-0.8-0.8C40.4,77.6,40.1,77.9,40,78.3z"/>
        <path class="st2" d="M44.5,77.6h-1.1v1.3c0,0.4,0.2,0.6,0.5,0.6c0.2,0,0.4-0.1,0.5-0.2l0.2,0.3c-0.2,0.1-0.5,0.3-0.8,0.3
		c-0.6,0-0.9-0.3-0.9-1v-1.3h-0.6v-0.4h0.6v-0.8h0.5v0.8h1.1V77.6z"/>
        <path class="st2" d="M46.7,79.9h-0.5V76h0.5V79.9z"/>
        <path class="st2" d="M50,78.2v1.6h-0.5v-1.5c0-0.5-0.3-0.8-0.7-0.8c-0.4,0-0.8,0.3-0.8,0.8v1.5h-0.5v-2.6H48v0.3
		c0.2-0.3,0.6-0.4,0.9-0.4C49.5,77.2,50,77.6,50,78.2z"/>
        <path class="st2" d="M51.9,79.9h-0.5l-1.1-2.6h0.5l0.9,2.2l0.9-2.2H53L51.9,79.9z"/>
        <path class="st2" d="M55.7,78.5c0,0.1,0,0.1,0,0.2h-2.1c0.1,0.5,0.4,0.8,0.9,0.8c0.3,0,0.6-0.1,0.8-0.3l0.2,0.3
		c-0.3,0.3-0.7,0.4-1.1,0.4c-0.8,0-1.3-0.6-1.3-1.4c0-0.8,0.6-1.4,1.3-1.4C55.2,77.2,55.7,77.7,55.7,78.5z M53.7,78.3h1.6
		c-0.1-0.5-0.4-0.8-0.8-0.8C54,77.6,53.7,77.9,53.7,78.3z"/>
        <path class="st2" d="M58.8,78.2v1.6h-0.5v-1.5c0-0.5-0.3-0.8-0.7-0.8c-0.4,0-0.8,0.3-0.8,0.8v1.5h-0.5v-2.6h0.4v0.3
		c0.2-0.3,0.6-0.4,0.9-0.4C58.3,77.2,58.8,77.6,58.8,78.2z"/>
        <path class="st2" d="M61.3,77.6h-1.1v1.3c0,0.4,0.2,0.6,0.5,0.6c0.2,0,0.4-0.1,0.5-0.2l0.2,0.3c-0.2,0.1-0.5,0.3-0.8,0.3
		c-0.6,0-0.9-0.3-0.9-1v-1.3h-0.6v-0.4h0.6v-0.8h0.5v0.8h1.1V77.6z"/>
        <path class="st2" d="M64.4,78.5c0,0.8-0.6,1.4-1.4,1.4c-0.8,0-1.4-0.6-1.4-1.4c0-0.8,0.6-1.4,1.4-1.4
		C63.8,77.2,64.4,77.8,64.4,78.5z M62.1,78.5c0,0.6,0.4,0.9,0.9,0.9c0.5,0,0.9-0.4,0.9-0.9c0-0.6-0.4-0.9-0.9-0.9
		C62.5,77.6,62.1,78,62.1,78.5z"/>
        <path class="st2" d="M66.7,77.3l-0.1,0.4c-0.1-0.1-0.3-0.1-0.5-0.1c-0.4,0-0.7,0.3-0.7,0.8v1.5H65v-2.6h0.4v0.3
		c0.2-0.3,0.5-0.4,0.8-0.4C66.4,77.2,66.5,77.2,66.7,77.3z"/>
        <path class="st2" d="M67.6,81h-0.5l1-1.7l-1.2-2.1h0.5l0.9,1.6l0.9-1.6h0.5L67.6,81z"/>
</g>
</svg>
