<svg id="graphics" xmlns="http://www.w3.org/2000/svg" viewBox="0 0 100 100">
  <title>fivetran-master-connector-template-01312019b</title>
  <path d="M65.45,46.62c1-1,2.21-.74,2.21.28S66.47,49,65,49.79a5,5,0,0,1-.47.25,4.17,4.17,0,0,1-.08-.83,4,4,0,0,1,1-2.59m-5.59,10.7c-1.39,1.39-3.17-.39-1.1-2.46a11,11,0,0,1,2.05-1.46,3.94,3.94,0,0,1-1,3.92M51,51.74c-1.07,0-1.76-1.28-1.54-2.86S50.69,46,51.76,46s1.65,1.1,1.58,2.52c0,.2-.06.4-.08.59C53,50.59,52,51.74,51,51.74m-14.1-.52a1.67,1.67,0,0,1-1.2.53,1.44,1.44,0,0,1-1-.47c-1-1-.9-3.41.37-4.68A1.77,1.77,0,0,1,36.26,46a1.45,1.45,0,0,1,1,.46c.93.93,1,3.34-.41,4.73m33.05.52L69.43,51c-.09-.1-.19-.23-.46,0a3.78,3.78,0,0,1-2.11.77,2.43,2.43,0,0,1-1.61-.51l.54-.27a10.35,10.35,0,0,0,2.2-1.6c1.92-1.92,1.32-4.78-1-4.78S63,46.74,63,49.13a5.57,5.57,0,0,0,.2,1.42c-.13.06-1,.49-2,1.06a3.51,3.51,0,0,0-2.52-.4h0c1.42-2,3.57-5.19,3.75-5.45s.11-.37,0-.67-.33-.41-.55-.41H57.38a.28.28,0,0,0-.3.23,8.41,8.41,0,0,0-.15.92c0,.2.16.32.35.32h3.23l-2.92,4.17-.06.07c-.42.61-1.07,1.47-1.86,1.47-.48,0-1.08-.35-1.08-1.49a44.39,44.39,0,0,1,.77-5.3c0-.2,0-.4-.34-.4h-.79a.31.31,0,0,0-.32.27c0,.28-.09.56-.14.82a2,2,0,0,0-1.92-1.17,3.24,3.24,0,0,0-2.33,1c-1.66,1.67-1.35,4.39-2.79,5.83-.62.62-1.32.43-1.32-.79a12.13,12.13,0,0,1,1.15-4.43.67.67,0,0,0-.13-.65c-.16-.23-.22-.36-.51-.36a20.09,20.09,0,0,1-2.64.29c-.31,0-.61,0-.87,0,0-.22,0-.37,0-.42,0-.21-.06-.34-.28-.34h-.74c-.27,0-.34.13-.37.34-.13.89-.37,4.15-2,5.79a1.39,1.39,0,0,1-.31.25,6.3,6.3,0,0,0,.63-2.68c0-2.34-1.38-3.78-3.12-3.78a3.09,3.09,0,0,0-1.62.5c.25-1.43.47-2.76.55-3.21a.91.91,0,0,0-.17-.74c-.16-.25-.31-.37-.53-.37H31.91a.3.3,0,0,0-.29.27,6.31,6.31,0,0,0-.15.92c0,.2.13.27.29.27h1.88c-.3,1.84-.87,5.4-1,6.3a4,4,0,0,1-2.39,3A.3.3,0,0,0,30,52c.07.18.3.66.37.78a.32.32,0,0,0,.38.16,5,5,0,0,0,1.87-1.16A4,4,0,0,0,33,51.3a3.2,3.2,0,0,0,3.13,1.88,5.81,5.81,0,0,0,4.09-1.59,9,9,0,0,0,2-4.88,8.43,8.43,0,0,0,1,.08,7.13,7.13,0,0,0,1.61-.19A14.53,14.53,0,0,0,44,50.68c0,2,.93,2.51,2,2.51a2.81,2.81,0,0,0,2.34-1.79,3.12,3.12,0,0,0,.63,1,2.6,2.6,0,0,0,1.94.83,3,3,0,0,0,2.43-1.45,1.93,1.93,0,0,0,.5.9,2.19,2.19,0,0,0,1.56.55c1.2,0,1.9-.9,3.77-.9a1.87,1.87,0,0,1,.64.1A12.22,12.22,0,0,0,57.63,54c-1.54,1.54-1.61,3.57-.6,4.58,1.22,1.23,3,.61,4.06-.48A5.14,5.14,0,0,0,62,52.73c.9-.47,1.64-.82,1.82-.9a3.49,3.49,0,0,0,3,1.36,5.15,5.15,0,0,0,3-1,.29.29,0,0,0,.06-.41" fill="#212123"/>
</svg>
