<svg width="192" height="192" viewBox="0 0 192 192" fill="none" xmlns="http://www.w3.org/2000/svg">
<path d="M148.765 81.3605C145.454 79.7768 142.239 78.3372 139.168 77.0415C142.335 76.4177 145.55 75.6499 148.765 74.7861C171.08 68.6436 185.284 59.0459 181.829 53.1434C178.374 47.2408 159.658 46.857 138.4 51.8477C135.328 52.5676 132.353 53.3834 129.522 54.2472C131.009 52.0397 132.449 49.7842 133.793 47.4328C142.767 31.6446 144.494 18.1119 138.592 15.6166C132.689 13.1212 120.644 21.903 110.471 36.7794C108.935 38.9868 107.543 41.2424 106.248 43.4498C105.576 41.0024 104.808 38.6509 103.896 36.0596C97.7537 19.2157 88.012 7.6985 81.5336 8.70625C75.0552 9.714 73.0398 23.5826 77.9825 41.2903C78.7024 43.8816 79.5661 46.473 80.4779 48.9684C77.8545 47.4648 75.0713 46.0252 72.128 44.6495C51.589 34.8119 31.4819 31.0208 26.3472 36.0596C21.2125 41.0983 33.5935 54.2951 55.3801 65.2844C58.4994 66.868 61.6186 68.3076 64.6899 69.6033C61.0908 70.2271 57.3476 70.947 53.5085 71.9068C24.7156 78.7211 -0.238225 91.1021 0.00171618 99.4041C0.241657 107.706 27.5949 107.994 58.5953 99.4041C62.7223 98.3003 66.7054 97.0527 70.4005 95.805C68.0491 98.8282 65.6017 102.091 63.2022 105.403C44.2469 133.092 33.4015 163.564 42.2793 168.939C51.1571 174.314 74.8634 150.559 91.8512 120.951C94.0107 117.208 95.9301 113.561 97.6097 110.057C98.3775 113.753 99.2894 117.64 100.393 121.671C109.223 153.295 125.587 179.496 135.329 175.417C145.07 171.338 142.335 141.058 131.585 111.641C130.178 107.898 128.738 104.347 127.266 100.988C130.434 102.907 133.841 104.731 137.392 106.506C163.594 119.703 187.54 124.118 189.795 116.104C192.05 108.09 173.191 92.9736 148.765 81.3605Z" fill="#44B6E8"/>
<path d="M77.9344 90.574C75.1511 91.5338 72.176 92.4456 69.0567 93.2614C60.7736 95.5586 52.2884 97.0531 43.7188 97.7242C22.4121 114.184 7.63182 132.132 11.7588 139.042C15.8858 145.952 36.7126 138.514 59.1231 123.782C62.5879 114.652 67.131 105.968 72.6558 97.9162C74.4314 95.2769 76.1589 92.8295 77.9344 90.574Z" fill="#248DCD"/>
<path d="M73.0878 70.4194C70.6884 69.4117 68.2889 68.308 65.7935 67.1082C59.678 64.1377 53.9289 60.466 48.6618 56.1669C27.0671 55.4951 9.07142 58.9022 6.52805 64.9487C3.98467 70.9952 17.7093 77.6656 38.6322 81.1688C46.9123 77.2825 55.5832 74.2904 64.4979 72.243C67.4732 71.7631 70.3045 70.8993 73.0878 70.4194Z" fill="#248DCD"/>
<path d="M85.0849 54.103C84.3171 52.0875 83.5972 50.024 83.0213 47.9125C81.4159 42.7522 80.5753 37.3844 80.526 31.9804C68.5289 21.423 56.5319 15.6644 51.4452 18.2558C46.3584 20.8472 48.7578 30.9247 57.2997 43.1137C64.6161 44.8172 71.7157 47.3447 78.4625 50.6479C80.766 51.7356 82.9734 52.8873 85.0849 54.103Z" fill="#248DCD"/>
<path d="M123.859 58.2303C126.163 57.5104 128.658 56.8386 131.01 56.2627C137.302 54.7107 143.731 53.7786 150.205 53.4795C161.482 43.114 166.329 33.5643 162.106 30.0132C157.883 26.4621 146.798 29.3414 133.985 36.3957C132.634 42.1514 130.382 47.6577 127.315 52.7117C126.259 54.6312 125.107 56.4547 123.859 58.2303Z" fill="#248DCD"/>
<path d="M98.7613 101.323C97.4656 103.915 96.026 106.554 94.4424 109.337C89.9337 117.132 84.6438 124.448 78.6544 131.172C76.207 159.053 80.3819 183.047 89.8356 183.479C99.2892 183.911 107.975 162.508 112.006 136.259C107.196 128.056 103.424 119.287 100.777 110.153C100.057 106.938 99.3372 104.059 98.7613 101.323Z" fill="#248DCD"/>
<path d="M105.576 49.5924C106.583 47.7688 107.687 45.9452 108.935 44.1217C111.957 39.5242 115.535 35.3175 119.588 31.5968C119.252 18.2081 115.317 8.65842 109.991 8.03457C104.664 7.41072 98.9534 15.2808 95.5942 27.5658C99.1281 32.4505 101.91 37.8369 103.848 43.5458C104.28 45.5613 104.952 47.7688 105.576 49.5924Z" fill="#248DCD"/>
<path d="M191.954 81.3604C191.043 75.6498 177.222 69.7952 158.89 66.628C152.571 70.1639 145.81 72.8428 138.784 74.5941C136.192 75.3139 133.649 75.8898 131.153 76.4176C133.601 77.3774 135.952 78.5291 138.688 79.7288C145.543 82.9771 152.068 86.8824 158.171 91.3899C178.566 91.4859 192.914 87.4069 191.954 81.3604Z" fill="#248DCD"/>
<path d="M121.508 94.653C122.564 97.1483 123.619 99.8357 124.627 102.667C127.458 110.431 129.453 118.474 130.578 126.661C148.717 144.657 166.905 154.926 172.183 148.784C177.462 142.641 168.584 125.653 153.996 107.898C145.383 105.844 137.051 102.75 129.186 98.6839C126.499 97.4842 123.907 96.0926 121.508 94.653Z" fill="#248DCD"/>
<path d="M158.363 91.2462C152.26 86.7386 145.736 82.8334 138.88 79.5851C136.336 78.3854 133.793 77.2336 131.345 76.2739C133.841 75.746 136.384 75.1701 138.975 74.4503C146.002 72.6991 152.763 70.0202 159.083 66.4842C164.649 63.1251 167.432 59.7659 166.089 57.2226C164.745 54.6792 158.699 53.2395 150.541 53.4795C144.067 53.7786 137.638 54.7107 131.345 56.2627C128.85 56.8386 126.547 57.5104 124.195 58.2303C125.443 56.4547 126.595 54.6312 127.746 52.7117C130.814 47.6577 133.065 42.1514 134.417 36.3957C135.472 31.165 134.752 27.4219 132.209 26.3181C129.666 25.2144 124.819 27.182 119.828 31.5969C115.775 35.3175 112.197 39.5242 109.175 44.1217C107.927 45.9453 106.823 47.7689 105.816 49.5924C105.288 47.5769 104.616 45.5614 103.896 43.5459C101.958 37.8369 99.176 32.4505 95.6421 27.5659C92.139 22.7671 88.5879 20.3677 85.7566 20.8476C82.9253 21.3274 80.9577 25.6463 80.9577 31.9807C81.007 37.3848 81.8478 42.7525 83.4532 47.9128C84.0291 50.0243 84.7489 52.0878 85.5167 54.1033C83.4052 52.9196 81.1977 51.7679 78.8943 50.6482C72.1474 47.3451 65.0478 44.8175 57.7315 43.114C50.4373 41.5304 44.7746 41.6744 42.7111 43.8818C40.6476 46.0893 42.9992 51.0321 49.0937 56.1668C54.3607 60.4658 60.1098 64.1376 66.2253 67.1081C68.6727 68.3078 71.0242 69.4116 73.5196 70.4193C70.7363 70.8992 67.905 71.5231 64.9297 72.2429C56.015 74.2902 47.3442 77.2824 39.0641 81.1686C30.5222 85.2476 25.1475 89.6146 25.4834 93.0217C25.8193 96.4289 33.3055 98.3964 44.1509 97.8205C52.7204 97.1494 61.2055 95.6549 69.4886 93.3577C72.6079 92.5419 75.583 91.6301 78.3663 90.6703C76.5908 92.9258 74.8633 95.4691 73.0878 98.0125C67.5629 106.065 63.0198 114.748 59.555 123.878C56.0519 133.476 55.524 141.01 59.1711 143.073C62.8182 145.137 70.8803 140.29 79.0863 131.268C85.0757 124.544 90.3656 117.228 94.8743 109.434C96.4579 106.65 97.8977 104.011 99.1933 101.42C99.7692 104.155 100.489 107.034 101.305 110.01C103.902 119.221 107.643 128.072 112.438 136.355C117.573 144.849 122.947 149.744 126.834 148.256C130.721 146.769 132.305 138.131 130.913 126.901C129.789 118.714 127.794 110.671 124.963 102.907C123.955 100.076 122.9 97.3887 121.844 94.8933C124.243 96.333 126.642 97.7246 129.522 99.0683C137.387 103.135 145.719 106.229 154.332 108.282C162.634 110.105 168.728 109.674 169.736 106.506C170.744 103.339 165.993 97.1487 158.363 91.2462Z" fill="white"/>
</svg>
