<svg width="192" height="192" viewBox="0 0 192 192" fill="none" xmlns="http://www.w3.org/2000/svg">
<path d="M80.1847 141.577C72.4287 149.333 59.0874 150.119 50.4805 141.511L19.1619 172.831C44.7208 198.391 86.1408 198.38 111.7 172.831C137.259 147.282 137.259 105.85 111.7 80.2896L80.2393 111.751C88.7589 120.26 88.2244 133.537 80.1847 141.577Z" fill="#34A853"/>
<path d="M141.49 80.2677C133.56 88.1986 120.197 88.7877 111.699 80.2895L80.293 111.697C105.852 137.257 147.272 137.246 172.831 111.697C198.39 86.1477 198.39 44.715 172.831 19.155L141.469 50.5186C150.097 59.1586 149.279 72.4786 141.49 80.2677Z" fill="#5BB974"/>
<path d="M172.831 19.1659C147.272 -6.39409 105.852 -6.38318 80.2929 19.1659C54.7449 44.715 54.734 86.1477 80.2929 111.708L111.699 80.3005C102.95 71.5514 103.954 58.2859 111.742 50.4968C120.109 42.1295 133.44 42.5114 141.468 50.5405C150.13 59.2023 164.169 59.2023 172.831 50.5405C181.492 41.8677 181.492 27.8277 172.831 19.1659Z" fill="#1E8E3E"/>
<path d="M111.699 80.3005C86.14 54.7405 44.7199 54.7514 19.161 80.3005C-6.387 105.85 -6.387 147.282 19.161 172.831C28.4552 182.126 43.52 182.126 52.8141 172.831C62.1083 163.537 59.7629 150.784 50.4688 141.49C42.9854 134.006 41.491 120.74 50.4251 111.795C57.7012 104.519 70.7261 102.446 80.2384 111.74C89.5326 121.035 103.506 119.977 111.808 111.686C119.815 103.7 120.993 89.5841 111.699 80.3005Z" fill="#5BB974"/>
</svg>
