<svg width="192" height="192" viewBox="0 0 192 192" fill="none" xmlns="http://www.w3.org/2000/svg">
<path d="M67.3923 75.52C72.2231 75.5192 76.8611 77.415 80.3083 80.7993C83.7555 84.1836 85.7362 88.786 85.8243 93.616C85.8243 96.493 86.9672 99.2523 89.0016 101.287C91.036 103.321 93.7952 104.464 96.6722 104.464C99.5493 104.464 102.309 103.321 104.343 101.287C106.377 99.2523 107.52 96.493 107.52 93.616H115.104C115.104 98.5108 113.16 103.205 109.699 106.666C106.237 110.127 101.543 112.072 96.6482 112.072C91.7534 112.072 87.0591 110.127 83.5979 106.666C80.1367 103.205 78.1923 98.5108 78.1923 93.616C78.1923 90.7325 77.0469 87.9672 75.008 85.9283C72.9691 83.8894 70.2037 82.744 67.3203 82.744C64.4369 82.744 61.6716 83.8894 59.6327 85.9283C57.5938 87.9672 56.4483 90.7325 56.4483 93.616H48.9124C49.0126 88.7899 50.9973 84.1947 54.4418 80.813C57.8863 77.4313 62.5172 75.5315 67.3443 75.52" fill="#6A757C"/>
<path d="M146.112 75.4719V93.6159C146.117 93.6798 146.117 93.744 146.112 93.8079C146.115 95.2325 145.838 96.6437 145.296 97.9611C144.753 99.2784 143.957 100.476 142.952 101.486C140.922 103.525 138.165 104.674 135.288 104.68C132.411 104.686 129.649 103.549 127.61 101.52C125.572 99.4897 124.423 96.733 124.416 93.8559C124.416 93.8079 124.416 75.5199 124.416 75.424H116.832C116.832 75.472 116.832 93.7599 116.832 93.8079C116.826 98.7027 118.764 103.4 122.221 106.865C125.677 110.331 130.369 112.281 135.264 112.288C140.159 112.294 144.856 110.356 148.321 106.899C151.787 103.443 153.738 98.7507 153.744 93.8559V75.4719H146.112Z" fill="#EC1C24"/>
<path d="M38.6884 58V111.664H46.3203V58H38.6884Z" fill="#EC1C24"/>
<path d="M192 111.712V93.5679C191.932 90.7316 191.212 87.949 189.896 85.4358C188.579 82.9226 186.702 80.7462 184.409 79.0753C182.116 77.4044 179.469 76.2838 176.674 75.8005C173.878 75.3171 171.009 75.4839 168.288 76.2879C164.583 77.3225 161.307 79.5166 158.941 82.5485C156.574 85.5805 155.24 89.2909 155.136 93.1359V93.6639C155.128 97.0614 156.085 100.391 157.894 103.267C159.704 106.142 162.292 108.445 165.358 109.908C168.425 111.371 171.843 111.934 175.217 111.531C178.59 111.128 181.78 109.776 184.416 107.632V111.76H192V111.712ZM173.376 104.464C170.494 104.464 167.73 103.323 165.688 101.29C163.646 99.2565 162.493 96.4974 162.48 93.6159C162.672 87.7599 167.664 83.1039 173.568 83.1039C175.031 83.0199 176.496 83.2372 177.871 83.7423C179.247 84.2474 180.504 85.0296 181.565 86.0405C182.626 87.0514 183.469 88.2694 184.04 89.619C184.611 90.9686 184.899 92.4211 184.885 93.8865C184.872 95.3519 184.558 96.799 183.963 98.1381C183.368 99.4773 182.504 100.68 181.425 101.672C180.346 102.663 179.075 103.423 177.69 103.903C176.306 104.383 174.837 104.574 173.376 104.464Z" fill="#EC1C24"/>
<path d="M67.3923 111.76C72.2231 111.761 76.8611 109.865 80.3083 106.481C83.7555 103.096 85.7362 98.4939 85.8243 93.6639C85.8115 90.7869 86.9422 88.0226 88.9676 85.9792C90.993 83.9358 93.7472 82.7807 96.6242 82.768C99.5013 82.7552 102.266 83.8859 104.309 85.9113C106.352 87.9367 107.507 90.6909 107.52 93.5679V133.6H115.104V93.5679C115.091 88.6731 113.135 83.9838 109.665 80.5317C106.194 77.0795 101.495 75.1472 96.6002 75.16C91.7054 75.1727 87.0161 77.1294 83.564 80.5995C80.1118 84.0697 78.1796 88.7691 78.1923 93.6639C78.1923 96.5474 77.0469 99.3127 75.008 101.352C72.9691 103.39 70.2037 104.536 67.3203 104.536C64.4369 104.536 61.6716 103.39 59.6327 101.352C57.5938 99.3127 56.4483 96.5474 56.4483 93.6639H48.9124C49.0126 98.49 50.9973 103.085 54.4418 106.467C57.8863 109.849 62.5172 111.748 67.3443 111.76" fill="#EC1C24"/>
<path d="M35.5204 96.1119H8.20843C8.51169 98.359 9.64112 100.413 11.3764 101.872C13.1044 103.312 15.2644 103.984 17.9524 103.984C19.4651 104.007 20.9671 103.726 22.369 103.157C23.7708 102.588 25.0439 101.743 26.1124 100.672L33.2644 104.032C31.6406 106.397 29.4443 108.313 26.8804 109.6C24.3844 110.816 21.4244 111.424 18.0004 111.424C12.6884 111.424 8.35243 109.744 4.99244 106.384C1.63245 103.024 -0.0315471 98.8319 0.000452829 93.8079C0.000452829 88.624 1.66445 84.336 4.99244 80.944C8.30443 77.536 12.5284 75.808 17.5204 75.808C22.5124 75.808 27.1684 77.488 30.5284 80.944C33.8884 84.4 35.5204 88.864 35.5204 94.4799V96.1119ZM27.0244 89.392C26.4776 87.5235 25.3091 85.8978 23.7124 84.784C22.0329 83.5889 20.0133 82.9662 17.9524 83.008C15.7125 82.9591 13.5191 83.6509 11.7124 84.976C10.6084 85.792 9.55243 87.28 8.59243 89.344L27.0244 89.392Z" fill="#EC1C24"/>
</svg>
