<svg width="192" height="192" viewBox="0 0 192 192" fill="none" xmlns="http://www.w3.org/2000/svg">
<g clip-path="url(#clip0)">
<path d="M95.7014 0.000344123H167.808C174.183 -0.0337248 180.311 2.46311 184.846 6.94279C189.382 11.4225 191.955 17.519 192 23.8938V96.4271C191.977 121.76 181.907 146.05 163.997 163.967C146.088 181.885 121.803 191.966 96.4693 192H95.7014C83.1449 192.012 70.7092 189.55 59.1042 184.755C47.4993 179.96 36.9523 172.926 28.0656 164.056C19.1789 155.185 12.1265 144.65 7.31101 133.054C2.49551 121.458 0.0112118 109.026 1.07004e-05 96.4696C-0.0119733 71.0134 10.0426 46.5854 27.9708 28.5134C45.8989 10.4413 70.2459 0.191826 95.7014 0.000344123Z" fill="#25C16F"/>
<path d="M95.7019 42.7524C84.0613 42.7637 72.9007 47.3929 64.6695 55.624C56.4384 63.8552 51.8091 75.0157 51.7979 86.6563V116.523C51.8637 120.384 53.4267 124.068 56.1571 126.798C58.8875 129.529 62.5718 131.092 66.4325 131.158H78.8059V97.0243H61.7392V87.4243C61.7392 78.3715 65.3354 69.6896 71.7367 63.2883C78.1379 56.8871 86.8198 53.2909 95.8725 53.2909C104.925 53.2909 113.607 56.8871 120.008 63.2883C126.41 69.6896 130.006 78.3715 130.006 87.4243V96.8537H113.195V130.987H124.63V131.584C124.586 135.158 123.146 138.572 120.619 141.099C118.092 143.626 114.678 145.065 111.105 145.11H97.5365C96.4698 145.11 95.3179 145.707 95.3179 146.774C95.3384 147.36 95.5774 147.917 95.988 148.335C96.3986 148.754 96.9511 149.003 97.5365 149.035H111.105C115.733 149.035 120.171 147.196 123.444 143.924C126.717 140.651 128.555 136.213 128.555 131.584V130.475C131.765 129.773 134.637 127.993 136.695 125.431C138.752 122.87 139.87 119.681 139.862 116.395V87.1256C139.983 81.2832 138.925 75.4765 136.752 70.0521C134.578 64.6278 131.333 59.6973 127.211 55.5553C123.089 51.4132 118.174 48.1446 112.76 45.9448C107.346 43.7451 101.545 42.6594 95.7019 42.7524Z" fill="white"/>
</g>
<defs>
<clipPath id="clip0">
<rect width="192" height="192" fill="white"/>
</clipPath>
</defs>
</svg>
