<svg width="192" height="192" viewBox="0 0 192 192" fill="none" xmlns="http://www.w3.org/2000/svg">
<path d="M166.6 180.96C166.6 187.104 161.464 192 155.224 192H36.376C30.088 192 25 187.008 25 180.96V11.1359C25 4.99195 30.136 0.0959473 36.376 0.0959473H112.792L166.6 53.7599V180.96Z" fill="#22A466"/>
<path d="M118.696 52.416L166.6 96.96L166.456 53.712L118.696 52.416Z" fill="#1A8E5A"/>
<path d="M166.6 53.712H124.072C117.784 53.712 112.696 48.72 112.696 42.672V0L166.6 53.712Z" fill="#8ECEAF"/>
<path d="M100.36 147.6V138H123.496V147.6H100.36ZM68.0079 138H91.1439V147.6H68.0079V138ZM91.2399 131.376H68.1039V121.008H91.2399V131.376ZM91.2399 103.296V114.336H68.1039V103.296H91.2399ZM100.36 121.056H123.496V131.376H100.36V121.056ZM123.496 114.336H100.36V103.296H123.496V114.336ZM58.9839 94.368V156.576H132.712V94.368H58.9839Z" fill="white"/>
</svg>
