<svg width="192" height="192" viewBox="0 0 192 192" fill="none" xmlns="http://www.w3.org/2000/svg">
<g clip-path="url(#clip0)">
<path d="M121.471 61.4958H127.333L144.053 44.7755L144.87 37.6647C135.292 29.2274 123.724 23.3689 111.255 20.6415C98.7857 17.914 85.8274 18.4074 73.602 22.0755C61.3767 25.7436 50.2871 32.4655 41.3793 41.6069C32.4714 50.7482 26.0388 62.0078 22.6882 74.324C24.5459 73.5436 26.6151 73.4248 28.5498 73.9877L62.1822 68.4622C62.1822 68.4622 63.8638 65.6276 64.7767 65.8197C71.9348 57.9558 81.8293 53.1271 92.4328 52.3231C103.036 51.5192 113.546 54.801 121.808 61.4958H121.471Z" fill="#EA4335"/>
<path d="M167.692 74.324C163.85 60.1898 155.969 47.4832 145.014 37.7609L121.567 61.2075C126.457 65.1984 130.377 70.247 133.032 75.9729C135.687 81.6989 137.007 87.9528 136.894 94.2633V98.3952C142.258 98.6526 147.316 100.964 151.021 104.851C154.726 108.738 156.792 113.902 156.792 119.271C156.792 124.641 154.726 129.804 151.021 133.691C147.316 137.578 142.258 139.89 136.894 140.147H95.1419L90.9619 144.376V169.407L95.1419 173.587H136.894C148.548 173.669 159.919 169.999 169.326 163.12C178.733 156.24 185.677 146.516 189.13 135.385C192.583 124.254 192.364 112.308 188.503 101.311C184.642 90.3151 177.346 80.853 167.692 74.324Z" fill="#4285F4"/>
<path d="M53.485 173.107H95.2373V139.715H53.485C50.5186 139.701 47.5883 139.062 44.8848 137.841L39.0231 139.667L22.207 156.339L20.7175 162.2C30.1434 169.341 41.6603 173.174 53.485 173.107Z" fill="#34A853"/>
<path d="M53.4857 64.9549C42.1838 65.0329 31.1881 68.6362 22.0318 75.2621C12.8756 81.888 6.01543 91.2061 2.40806 101.917C-1.19931 112.628 -1.37401 124.198 1.90829 135.013C5.19058 145.828 11.7662 155.349 20.7182 162.249L44.7413 138.225C41.6702 136.836 38.9817 134.723 36.9062 132.067C34.8307 129.41 33.43 126.291 32.8242 122.975C32.2184 119.659 32.4255 116.245 33.4279 113.027C34.4302 109.809 36.1979 106.881 38.5793 104.496C40.9608 102.11 43.8852 100.337 47.1018 99.3292C50.3184 98.3213 53.7314 98.1084 57.0484 98.7084C60.3655 99.3084 63.4876 100.703 66.1473 102.774C68.807 104.845 70.925 107.53 72.3199 110.599L96.343 86.5757C91.3524 79.9089 84.8864 74.4879 77.4512 70.7369C70.0159 66.986 61.8134 65.0069 53.4857 64.9549Z" fill="#FBBC05"/>
</g>
<defs>
<clipPath id="clip0">
<rect width="192" height="192" fill="white"/>
</clipPath>
</defs>
</svg>
