<svg width="192" height="192" viewBox="0 0 192 192" fill="none" xmlns="http://www.w3.org/2000/svg">
<path d="M130.045 57.0474C130.045 66.3176 126.123 74.5181 119.705 80.9359C112.574 88.0669 102.234 89.8496 102.234 95.9109C102.234 104.111 115.426 101.616 128.084 114.273C136.462 122.652 141.632 133.705 141.632 146.54C141.632 171.855 121.309 192 95.8162 192C70.3231 192 50 171.855 50 146.558C50 133.705 55.1699 122.652 63.5487 114.273C76.2061 101.616 89.3983 104.111 89.3983 95.9109C89.3983 89.8496 79.0585 88.0669 71.9276 80.9359C65.5098 74.5181 61.5877 66.3176 61.5877 56.6908C61.5877 38.1504 76.7409 23.1755 95.2813 23.1755C98.8468 23.1755 102.056 23.7103 104.73 23.7103C109.543 23.7103 112.039 21.571 112.039 18.1838C112.039 16.2228 111.148 13.727 111.148 11.0529C111.148 4.99164 116.318 0 122.557 0C128.797 0 133.788 5.16992 133.788 11.4095C133.788 18.0056 128.618 21.0362 124.696 22.4624C121.487 23.532 118.992 24.9582 118.992 28.1671C118.992 34.2284 130.045 40.1114 130.045 57.0474ZM126.479 146.558C126.479 128.909 113.465 114.647 95.8162 114.647C78.1671 114.647 65.1532 128.909 65.1532 146.558C65.1532 164.029 78.1671 178.469 95.8162 178.469C113.465 178.469 126.479 164.011 126.479 146.558ZM115.961 56.6908C115.961 45.4596 106.869 36.1894 95.8162 36.1894C84.7632 36.1894 75.6713 45.4596 75.6713 56.6908C75.6713 67.922 84.7632 77.1922 95.8162 77.1922C106.869 77.1922 115.961 67.922 115.961 56.6908Z" fill="#23A47F"/>
</svg>
