<svg width="192" height="192" viewBox="0 0 192 192" fill="none" xmlns="http://www.w3.org/2000/svg">
<g clip-path="url(#clip0)">
<path d="M176.8 45.6776L99.1595 0.851984C97.1957 -0.283995 94.7746 -0.283995 92.8108 0.851984L15.1698 45.6776C13.2077 46.8126 11.9996 48.9076 12 51.1744V140.826C12.0014 143.092 13.2091 145.186 15.1698 146.322L92.8108 191.148C94.7746 192.284 97.1957 192.284 99.1595 191.148L176.8 146.322C178.761 145.186 179.969 143.092 179.97 140.826V51.1744C179.971 48.9076 178.763 46.8126 176.8 45.6776ZM160.393 133.185L95.9805 170.38L31.5316 133.185V58.8239L95.9439 21.6387V90.5216C95.9465 91.6551 96.5524 92.7014 97.5342 93.2678C98.516 93.8343 99.7252 93.8351 100.708 93.27L160.393 58.8239V133.185Z" fill="#ED485F"/>
</g>
<defs>
<clipPath id="clip0">
<rect width="192" height="192" fill="white"/>
</clipPath>
</defs>
</svg>
