<svg width="192" height="192" viewBox="0 0 192 192" fill="none" xmlns="http://www.w3.org/2000/svg">
<path d="M163.294 56.2209C170.727 48.7645 174.901 38.6652 174.901 28.1367C174.901 17.6082 170.727 7.5095 163.294 0.0530905L27.8333 135.779C24.1172 139.435 21.1592 143.789 19.1287 148.59C17.0983 153.391 16.0354 158.547 16.0009 163.76C15.9664 168.973 16.961 174.141 18.9277 178.969C20.8945 183.797 23.7947 188.189 27.4621 191.894L163.294 56.2209ZM163.613 79.4519L107.391 135.779C99.8997 143.195 95.6582 153.282 95.5985 163.824C95.5389 174.365 99.6659 184.499 107.073 192L163.294 135.779C167.008 132.115 169.963 127.754 171.99 122.947C174.017 118.139 175.075 112.978 175.105 107.761C175.134 102.544 174.134 97.3717 172.162 92.5413C170.19 87.711 167.285 83.3172 163.613 79.6112V79.4519ZM27.4621 112.495L83.7361 56.2209C91.2278 48.8046 95.4694 38.7177 95.529 28.1762C95.5887 17.6346 91.4616 7.50068 84.0544 0L27.8333 56.2209C24.1191 59.8851 21.1641 64.2456 19.1375 69.0533C17.1109 73.8611 16.0525 79.0218 16.023 84.2392C15.9934 89.4565 16.9933 94.6283 18.9652 99.4587C20.9372 104.289 23.8426 108.683 27.5151 112.389L27.4621 112.495Z" fill="#3197D6"/>
</svg>
