<svg width="192" height="192" viewBox="0 0 192 192" fill="none" xmlns="http://www.w3.org/2000/svg">
<g clip-path="url(#clip0)">
<path opacity="0.25" d="M149.748 78.6185L79.7616 148.503L115.018 183.709L185.004 113.824L149.748 78.6185Z" fill="#59C1A7"/>
<path opacity="0.25" d="M114.588 8.19388L79.3319 43.399L149.318 113.284L184.575 78.0788L114.588 8.19388Z" fill="#36C3F2"/>
<path opacity="0.15" d="M43.5513 78.7296L8.2608 113.901L78.315 183.718L113.605 148.547L43.5513 78.7296Z" fill="#EF3D55"/>
<path opacity="0.15" d="M79.9074 6.52522L9.92099 76.4101L45.1773 111.615L115.164 41.7304L79.9074 6.52522Z" fill="#6A266D"/>
<path d="M96.5004 50.3597C110.372 50.3597 121.617 39.131 121.617 25.2798C121.617 11.4286 110.372 0.200012 96.5004 0.200012C82.629 0.200012 71.3841 11.4286 71.3841 25.2798C71.3841 39.131 82.629 50.3597 96.5004 50.3597Z" fill="#6A266D"/>
<path d="M167.384 121.419C181.255 121.419 192.5 110.191 192.5 96.3393C192.5 82.4881 181.255 71.2595 167.384 71.2595C153.512 71.2595 142.267 82.4881 142.267 96.3393C142.267 110.191 153.512 121.419 167.384 121.419Z" fill="#36C3F2"/>
<path d="M96.5004 192.2C110.372 192.2 121.617 180.971 121.617 167.12C121.617 153.269 110.372 142.04 96.5004 142.04C82.629 142.04 71.3841 153.269 71.3841 167.12C71.3841 180.971 82.629 192.2 96.5004 192.2Z" fill="#59C1A7"/>
<path d="M25.6163 121.14C39.4876 121.14 50.7326 109.912 50.7326 96.0607C50.7326 82.2095 39.4876 70.9808 25.6163 70.9808C11.7449 70.9808 0.5 82.2095 0.5 96.0607C0.5 109.912 11.7449 121.14 25.6163 121.14Z" fill="#EF3D55"/>
</g>
<defs>
<clipPath id="clip0">
<rect width="192" height="192" fill="white"/>
</clipPath>
</defs>
</svg>
