<svg width="192" height="192" viewBox="0 0 192 192" fill="none" xmlns="http://www.w3.org/2000/svg">
<path fill-rule="evenodd" clip-rule="evenodd" d="M191.642 110.317L188.954 117.041C177.368 112.408 163.236 110.057 146.949 110.057V102.811C164.164 102.811 179.198 105.336 191.642 110.317ZM189.153 106.249C178.625 102.753 157.324 99.1887 146.949 99.1887V91.9434C157.44 91.9434 178.651 88.3823 188.986 84.8901L191.305 91.7514C187.341 93.0954 181.987 94.4213 176.234 95.5805C182.056 96.7362 187.479 98.0584 191.439 99.3734L189.153 106.249ZM191.591 80.8364C178.618 85.803 163.599 88.3208 146.949 88.3208V81.0755C162.711 81.0755 176.858 78.7171 189.001 74.0693L191.591 80.8364ZM132.339 107.227L96.1125 116.284V74.8482L132.339 83.9048V107.227ZM88.8672 124.547H77.9992V66.5849H88.8672V70.2076V120.925V124.547ZM136.838 77.5615L96.1125 67.3783V62.9623C96.1125 60.9626 94.4931 59.3396 92.4898 59.3396H74.3766C72.3733 59.3396 70.754 60.9626 70.754 62.9623V66.3313C15.6826 62.3138 9.16906 39.8462 9.16906 23.1132V5H1.92377V23.1132C1.92377 53.7934 24.4928 70.2909 70.754 73.5657V77.3188C42.6314 76.1921 22.4388 71.7544 7.47004 63.4223L3.94521 69.7511C19.9899 78.6882 41.3055 83.4085 70.754 84.5677V91.8637C50.2933 91.3783 22.5765 90.0234 2.84755 84.8177L1 91.8238C6.91577 93.3852 13.4945 94.6024 20.3522 95.566C13.4945 96.5333 6.91577 97.7505 1 99.3082L2.84755 106.314C22.5801 101.109 50.2969 99.7538 70.754 99.272V106.568C41.4685 107.713 20.1638 112.433 3.95608 121.377L7.45917 127.721C22.5837 119.374 42.8234 114.969 70.754 113.85V117.548C10.9985 121.946 1.92377 153.173 1.92377 171.642L1.91653 173.062C1.85494 184.741 1.89117 186.038 1.94551 186.52L9.15819 185.85C9.11834 185.19 9.12196 180.901 9.16181 173.101L9.16906 171.642C9.16906 144.037 30.4811 127.927 70.754 124.837V128.17C70.754 130.17 72.3733 131.792 74.3766 131.792H92.4898C94.4931 131.792 96.1125 130.17 96.1125 128.17V123.754L136.838 113.571C138.45 113.168 139.584 111.719 139.584 110.057V81.0755C139.584 79.4127 138.45 77.9636 136.838 77.5615Z" fill="#E9AA47"/>
</svg>
