<svg width="192" height="192" viewBox="0 0 192 192" fill="none" xmlns="http://www.w3.org/2000/svg">
<path d="M156.218 121.71C156.602 122.282 156.458 122.52 155.93 122.853L137.343 135.095C136.862 135.428 136.622 135.476 136.286 135.095C131.344 127.239 124.201 120.982 115.73 117.09C112.343 115.694 108.839 114.595 105.259 113.803C97.3793 112.263 89.2346 112.722 81.5811 115.137C79.2565 115.848 76.9922 116.74 74.8091 117.804C69.6267 120.425 64.9455 123.922 60.9768 128.14C58.9406 130.275 57.1226 132.605 55.5495 135.095C55.1173 135.762 54.829 135.714 54.2527 135.095L36.0018 123.139C35.2333 122.663 35.1372 122.329 35.6655 121.615C36.6809 119.968 37.7872 118.377 38.9795 116.852C41.9614 112.798 45.4288 109.12 49.3057 105.897C52.431 103.145 55.8446 100.734 59.4879 98.7043C63.9819 95.9007 68.8257 93.6909 73.8966 92.1311C79.8162 90.277 85.9484 89.1724 92.1475 88.8443C99.3534 88.4678 106.575 89.1747 113.568 90.9403C119.418 92.4734 125.062 94.6963 130.378 97.5612L131.771 98.3705C139.717 102.901 146.685 108.938 152.279 116.137C153.704 117.915 155.019 119.776 156.218 121.71ZM111.695 142.144C108.23 139.183 103.985 137.265 99.4588 136.615C94.9323 135.965 90.3129 136.611 86.1439 138.476C81.9175 140.326 78.3521 143.397 75.9137 147.288C74.9531 148.669 74.9531 148.669 76.3459 149.622L89.2657 158.196C91.2973 159.523 93.6769 160.231 96.1099 160.231C98.5428 160.231 100.922 159.523 102.954 158.196L115.73 149.67C117.17 148.717 117.17 148.717 116.162 147.336C114.971 145.373 113.462 143.619 111.695 142.144ZM191.759 94.8935C191.567 93.7246 191.108 92.615 190.417 91.6491C189.726 90.6832 188.822 89.8869 187.773 89.321L176.774 82.081L165.824 74.9363C163.47 73.555 161.261 71.8879 159.004 70.1732L136.862 55.5977L127.833 49.7391L127.401 49.406C126.907 48.9711 126.358 48.6022 125.768 48.31L117.507 43.0706L102.234 32.9251C100.317 31.6694 98.0706 31 95.7737 31C93.4766 31 91.2303 31.6694 89.3138 32.9251L78.0751 40.3082L65.8276 48.4053L48.0571 60.0277L27.5487 73.5548C19.3838 78.9371 11.171 84.2719 3.0541 89.7019C1.80692 90.4514 0.858387 91.6045 0.368456 92.9667C-0.121475 94.3288 -0.122836 95.8166 0.364499 97.1797C0.894738 98.9564 2.10011 100.459 3.72643 101.371C7.37661 103.848 11.0749 106.135 14.7251 108.659C15.3014 109.04 15.5415 108.945 15.8777 108.659C16.8383 107.23 17.7509 105.801 18.8075 104.42C20.5846 102.038 22.4576 99.6568 24.2827 97.4181C26.0435 95.3161 27.9708 93.3571 30.0463 91.5596C34.8913 86.9978 40.1847 82.9286 45.8476 79.4134C48.6813 77.651 51.6592 76.1744 54.541 74.6502L55.5015 74.2694C67.3467 68.7827 80.2002 65.7618 93.2684 65.3932C106.337 65.0245 119.342 67.3155 131.483 72.1256C134.269 73.2211 137.006 74.5549 139.744 75.7933L140.512 76.2695C147.797 80.1556 154.545 84.9584 160.588 90.5589C163.278 93.0357 165.824 95.6555 168.273 98.3705C171.148 101.778 173.811 105.357 176.246 109.088C176.678 109.802 177.014 109.088 177.35 109.088L188.349 101.848C189.705 101.038 190.765 99.8191 191.375 98.3705C191.901 97.3591 192.102 96.2124 191.951 95.0842L191.759 94.8935Z" fill="url(#paint0_linear)"/>
<defs>
<linearGradient id="paint0_linear" x1="95.7496" y1="159.958" x2="95.7496" y2="31.2581" gradientUnits="userSpaceOnUse">
<stop offset="0.13" stop-color="#F8DE1D"/>
<stop offset="0.54" stop-color="#08CD7B"/>
</linearGradient>
</defs>
</svg>
