<svg width="192" height="192" viewBox="0 0 192 192" fill="none" xmlns="http://www.w3.org/2000/svg">
<g clip-path="url(#clip0)">
<path d="M190.197 181.892L154.052 145.742C152.91 144.623 151.376 143.996 149.777 143.996C148.178 143.996 146.643 144.623 145.502 145.742L109.357 181.892C108.494 182.714 107.903 183.779 107.661 184.945C107.419 186.111 107.538 187.323 108.002 188.42C108.465 189.517 109.252 190.447 110.257 191.086C111.263 191.724 112.439 192.042 113.629 191.996H185.925C187.108 192.026 188.273 191.698 189.268 191.057C190.262 190.415 191.041 189.489 191.502 188.399C191.963 187.309 192.085 186.105 191.852 184.944C191.619 183.784 191.043 182.72 190.197 181.892Z" fill="#C3C6CC"/>
<path d="M191.399 52.0515L180.077 18.4393C179.566 16.9192 178.752 15.5188 177.683 14.3232L1.37292 190.623C2.40761 191.549 3.75917 192.041 5.14705 191.997H55.2247C56.6243 192.003 58.0115 191.734 59.3068 191.204C60.6021 190.674 61.78 189.893 62.773 188.907L188.999 62.6836C190.371 61.3245 191.326 59.6016 191.751 57.7179C192.176 55.8342 192.054 53.8682 191.399 52.0515Z" fill="#E1E3E6"/>
<path d="M173.565 11.9166L139.951 0.600492C138.135 -0.0545032 136.169 -0.176595 134.285 0.248621C132.401 0.673838 130.678 1.62864 129.319 3.0005L3.08683 129.223C1.10111 131.232 -0.00781608 133.946 0.00272516 136.771V186.848C-0.0413539 188.236 0.450701 189.587 1.37676 190.622L177.687 14.3228C176.489 13.2504 175.087 12.4319 173.565 11.9166Z" fill="#C3C6CC"/>
</g>
<defs>
<clipPath id="clip0">
<rect width="192" height="192" fill="white"/>
</clipPath>
</defs>
</svg>
