<svg width="192" height="192" viewBox="0 0 192 192" fill="none" xmlns="http://www.w3.org/2000/svg">
<path d="M96.4384 0L105.305 15.4324C106.176 17.0077 106.633 18.7775 106.633 20.5766C106.633 22.3757 106.176 24.1455 105.305 25.7207L52.5184 117.131L77.4683 160.24C79.3809 163.575 82.1427 166.347 85.4739 168.275C88.8051 170.203 92.5875 171.217 96.4384 171.217C100.289 171.217 104.072 170.203 107.403 168.275C110.734 166.347 113.496 163.575 115.408 160.24L140.358 117.131L133.812 105.455L105.459 154.426C104.56 155.981 103.268 157.275 101.713 158.177C100.157 159.08 98.3922 159.559 96.593 159.57C94.795 159.588 93.0259 159.12 91.4738 158.214C89.9216 157.308 88.6445 155.998 87.7781 154.426L65.9727 117.131L115.048 32.2526L123.914 47.6851C124.785 49.2603 125.242 51.0301 125.242 52.8292C125.242 54.6283 124.785 56.3981 123.914 57.9734L89.6854 117.234L96.4384 128.86L133.657 64.558L158.091 106.793C159.917 109.999 160.877 113.624 160.877 117.312C160.877 121 159.917 124.625 158.091 127.831L133.296 170.785C129.557 177.237 124.183 182.592 117.713 186.316C111.244 190.04 103.907 192 96.4384 192C88.9699 192 81.6329 190.04 75.1636 186.316C68.6942 182.592 63.3201 177.237 59.5806 170.785L34.7854 127.831C32.9598 124.625 32 121 32 117.312C32 113.624 32.9598 109.999 34.7854 106.793L96.6446 0.204711" fill="#ED5153"/>
</svg>
