<svg width="192" height="192" viewBox="0 0 192 192" fill="none" xmlns="http://www.w3.org/2000/svg">
<g clip-path="url(#clip0)">
<path fill-rule="evenodd" clip-rule="evenodd" d="M3.0634 191.189H42.8113V63.3985H3.0634V191.189ZM22.9756 0C27.5198 0 31.9619 1.34575 35.7402 3.86672C39.5185 6.38769 42.4634 9.97144 44.2024 14.1637C45.9413 18.3559 46.3963 22.9685 45.5098 27.419C44.6233 31.8694 42.4351 35.9571 39.2219 39.1657C36.0087 42.3743 31.9148 44.5594 27.458 45.4447C23.0011 46.3299 18.3815 45.8761 14.1832 44.1396C9.98498 42.4031 6.39667 39.4621 3.87207 35.6892C1.34748 31.9163 0 27.4803 0 22.9427C0 16.8579 2.42062 11.0231 6.72939 6.72055C11.0382 2.41797 16.8821 0 22.9756 0Z" fill="#0277B5"/>
<path fill-rule="evenodd" clip-rule="evenodd" d="M67.7783 63.3985H106.071V80.8352H106.607C110.428 74.3102 115.951 68.9432 122.587 65.3067C129.223 61.6702 136.723 59.9001 144.287 60.1862C184.571 60.1862 192 86.6468 192 121.367V191.495H152.176V129.32C152.176 114.484 152.176 95.4423 131.497 95.4423C110.819 95.4423 107.679 111.578 107.679 128.25V191.495H67.7783V63.7047" fill="#0277B5"/>
</g>
<defs>
<clipPath id="clip0">
<rect width="192" height="192" fill="white"/>
</clipPath>
</defs>
</svg>
