<svg width="192" height="192" viewBox="0 0 192 192" fill="none" xmlns="http://www.w3.org/2000/svg">
<path d="M0 137.027C4.67169 131.171 10.9225 132.553 17.0418 133.277C21.4503 133.869 25.793 134.922 30.2673 134.988C33.0966 135.053 35.0048 133.935 36.8472 131.895C40.3345 128.013 42.9006 123.407 46.5853 119.722C52.573 113.735 59.416 109.524 67.4435 106.694C80.9321 101.957 94.8156 98.2063 108.107 92.8108C119.358 88.2049 127.912 80.7697 133.966 70.2419C137.914 63.3331 141.73 56.3585 146.665 50.0418C153.31 41.6854 161.864 37.2769 172.524 37.3427C178.182 37.4085 182.986 34.974 187.986 33C188.381 33 188.842 33 189.236 33C191.342 33.7896 192 35.4345 192 37.5401C192 43.2646 190.092 48.1994 185.683 51.8842C182.722 54.3187 179.63 56.5559 176.537 58.793C172.26 61.8197 169.629 65.7676 168.378 70.8999C165.944 81.4277 164.036 92.087 160.68 102.417C157.719 111.629 154.1 120.578 147.257 127.816C145.151 130.053 142.717 131.961 139.953 133.408C138.374 134.198 137.519 134.132 137.782 132.027C137.979 130.448 137.979 128.868 137.65 127.158C136.729 129.132 135.874 131.106 134.953 133.079C128.768 145.647 119.622 154.596 105.541 157.754C105.343 157.82 105.146 157.886 104.949 157.886C103.369 158.083 101.132 158.873 100.409 157.688C99.4873 156.175 101.856 155.254 102.711 154.069C109.423 145.45 114.16 136.04 115.082 124.855C114.095 124.789 114.16 125.644 113.963 126.039C113.7 126.5 113.568 127.026 113.371 127.552C112.45 130.053 111.66 132.553 110.278 134.856C108.831 137.225 106.857 138.343 104.027 138.475C96.7896 138.672 89.6175 137.817 82.5113 136.83C76.1947 135.975 69.8122 135.514 63.4955 135.975C56.2577 136.501 50.0069 139.725 44.2166 143.673C37.5051 148.213 30.3331 151.898 23.0295 155.254C19.7395 156.767 16.2522 157.754 12.7649 158.675C10.1988 158.675 7.69842 158.675 5.13228 158.675C4.07951 157.03 4.5401 155.385 5.46127 153.938C6.77724 151.898 8.15901 149.924 9.54078 147.95C10.2646 146.963 11.0541 145.91 9.54078 145.055C6.18506 143.081 3.61892 139.923 0 138.343C0 137.883 0 137.422 0 137.027Z" fill="black"/>
</svg>
