<svg width="15" height="20" xmlns="http://www.w3.org/2000/svg">
 <g fill="#000" transform="matrix(0.7815224322765255,0,0,0.8116224322765255,-75.3510266361797,-92.47625996258418) ">
  <path stroke="#000" d="m113.593109,121.578897c0,-1.2 -0.2,-2 -0.7,-2.5c-0.5,-0.4 -1.3,-0.6 -2.6,-0.6l-7.8,0c-1.3,0 -2.1,0.2 -2.6,0.6c-0.5,0.4 -0.7,1.2 -0.7,2.5l0,6.9c0,1.2 0.2,2 0.7,2.5c0.5,0.4 1.3,0.6 2.6,0.6l7.8,0c1.3,0 2.1,-0.2 2.6,-0.6c0.5,-0.4 0.7,-1.2 0.7,-2.5l0,-1.7l-3.3,0l-1.3,2.3l-4.8,0l-2.4,-4.1l2.4,-4.1l4.8,0l1.3,2.3l3.3,0l0,-1.6z"/>
  <polygon fill="#F47E42" id="svg_7" points="103.89309692382812,124.97889709472656 105.193115234375,127.27888488769531 107.89309692382812,127.27888488769531 109.193115234375,124.97889709472656 107.89309692382812,122.67890930175781 105.193115234375,122.67890930175781 "/>
 </g>
</svg>
