<svg width="192" height="192" viewBox="0 0 192 192" fill="none" xmlns="http://www.w3.org/2000/svg">
<path fill-rule="evenodd" clip-rule="evenodd" d="M58.5417 93.0296L85.559 48.1887V136.995L58.5417 93.0296ZM161.044 44L139.43 120.549H139.157L115.942 44H65.2067L47.6379 75.2333L29.0366 44H2.95392L33.289 93.0796L0 148.056H24.7024L45.9369 111.867L67.9264 148.056H107.087V76.2907H107.36C107.905 79.2954 108.418 81.868 108.897 84.0086C109.376 86.1492 109.843 88.1283 110.298 89.946C110.753 91.7652 111.242 93.4957 111.767 95.1375C112.291 96.7794 112.822 98.5781 113.359 100.534L128.724 148.06H149.417L164.594 100.563C165.71 96.7415 166.746 93.0568 167.702 89.5094C168.746 85.5506 169.581 81.5399 170.204 77.4936H170.472V148.056H192V44H161.044Z" fill="url(#paint0_linear)"/>
<defs>
<linearGradient id="paint0_linear" x1="17.654" y1="77.5632" x2="135.13" y2="158.665" gradientUnits="userSpaceOnUse">
<stop stop-color="#21DBAA"/>
<stop offset="0.35" stop-color="#0BB8EE"/>
<stop offset="0.695" stop-color="#057AEF"/>
<stop offset="1" stop-color="#5324E4"/>
</linearGradient>
</defs>
</svg>
