<svg width="192" height="192" viewBox="0 0 192 192" fill="none" xmlns="http://www.w3.org/2000/svg">
<path fill-rule="evenodd" clip-rule="evenodd" d="M96 0C77.013 0 58.4524 5.63029 42.6653 16.1789C26.8782 26.7275 14.5737 41.7211 7.30764 59.2628C0.0416222 76.8045 -1.85953 96.1066 1.84465 114.729C5.54883 133.351 14.692 150.457 28.1178 163.882C41.5436 177.308 58.6492 186.451 77.2714 190.155C95.8936 193.859 115.196 191.959 132.738 184.693C150.279 177.427 165.272 165.122 175.821 149.335C186.37 133.548 192 114.987 192 95.9999C192 70.5391 181.886 46.1214 163.882 28.1179C145.879 10.1145 121.461 0 96 0Z" fill="#652E6D"/>
<path fill-rule="evenodd" clip-rule="evenodd" d="M109.294 103.129C117.058 101.428 124.015 97.1104 129.014 90.8903C134.014 84.6701 136.759 76.919 136.795 68.9161C136.795 45.6086 120.937 34.4615 95.783 34.4615C73.5999 34.4615 60.8075 45.0295 57.7891 63.4149H46.7693L68.7607 82.2346L91.9979 63.4149H79.5888C79.5888 63.4149 79.5889 50.3378 96.1184 50.3378C98.6282 50.1603 101.147 50.5258 103.505 51.4099C105.862 52.294 108.005 53.6759 109.789 55.4632C111.572 57.2505 112.956 59.4017 113.845 61.772C114.735 64.1423 115.111 66.6766 114.948 69.2053C114.948 81.7035 108.384 91.1135 92.7165 91.1135H57.7891V151.385H79.7805V105.687C84.5716 105.687 89.3628 107.472 97.4599 119.584L117.056 151.385H141.539L121.32 118.764C118.007 112.928 113.966 107.544 109.294 102.743" fill="white"/>
</svg>
