<svg width="192" height="192" viewBox="0 0 192 192" fill="none" xmlns="http://www.w3.org/2000/svg">
<path d="M25.3482 101.635C25.3482 99.2989 24.6121 97.5386 23.1719 96.3224C21.7316 95.1062 19.9713 94.2101 17.859 93.602C15.9067 93.0579 13.9543 92.4818 12.034 91.9057C10.2417 91.3616 9.34556 90.6575 9.34556 89.7613C9.34556 88.7052 10.3377 88.1611 12.29 88.1611C13.2182 88.1611 14.0183 88.3531 14.6904 88.7372C15.3626 89.1212 15.7466 89.7293 15.8746 90.5935H24.5801C24.26 87.905 23.1079 85.7287 21.1235 84.0644C19.1712 82.4321 16.3227 81.6 12.6421 81.6C10.3057 81.6 8.22537 81.952 6.43307 82.6241C4.64077 83.2963 3.23254 84.3204 2.20837 85.6967C1.1842 87.0729 0.704118 88.7052 0.704118 90.6575C0.704118 93.0899 1.44024 94.9462 2.88048 96.1944C4.32072 97.4426 6.08101 98.3708 8.16136 98.9469C10.2417 99.523 12.194 100.099 13.9863 100.611C15.7786 101.155 16.7068 101.891 16.7068 102.788C16.7068 103.46 16.3547 103.972 15.6506 104.324C14.9465 104.676 14.0183 104.868 12.8341 104.868C11.874 104.868 11.0098 104.612 10.2417 104.1C9.50558 103.588 8.9935 102.82 8.76946 101.859H0C0.0640107 103.588 0.640106 105.156 1.69628 106.628C2.75246 108.068 4.1927 109.221 6.04901 110.085C7.90532 110.949 10.0177 111.365 12.4181 111.365C15.0105 111.365 17.2829 111.013 19.2352 110.277C21.1875 109.541 22.6918 108.452 23.78 107.012C24.8041 105.54 25.3482 103.748 25.3482 101.635ZM55.1452 81.6H62.9225V110.629H55.1452V81.6ZM74.1564 81.6H66.315V110.629H85.2942L86.4784 104.036H74.1244V81.6H74.1564ZM39.2065 81.6H35.3339L23.6519 110.629H31.4292L33.5736 105.156H44.4874L46.6318 110.629H54.4091L42.7271 81.6H39.2065ZM35.942 99.0429L39.0145 91.1376L42.087 99.0429H35.942Z" fill="#212125"/>
<path d="M126.869 92.8979H115.379V81.6H84.046L82.5737 88.1291H91.9513L87.7906 110.629H95.6319L100.049 88.1291H107.538V110.629H115.379V99.2029H126.869V110.629H134.71V81.6H126.869V92.8979ZM162.715 91.3936C162.715 85.9847 158.33 81.6 152.921 81.6H138.359V110.629H146.2V101.187H149.049L155.29 110.629H163.739L156.922 100.323C160.347 98.7868 162.715 95.3943 162.715 91.3936ZM151.673 95.2343H146.2V88.001H151.673C153.69 88.001 155.29 89.6333 155.29 91.6176C155.29 93.602 153.69 95.2343 151.673 95.2343ZM184.319 81.6V99.3629C184.319 102.275 181.95 104.644 179.038 104.644C176.125 104.644 173.757 102.275 173.757 99.3629V81.6H166.044V98.4028C166.044 105.572 171.869 111.397 179.038 111.397C186.207 111.397 192 105.572 192 98.4028V81.6H184.319Z" fill="#212125"/>
</svg>
