<svg width="192" height="192" viewBox="0 0 192 192" fill="none" xmlns="http://www.w3.org/2000/svg">
<g clip-path="url(#clip0)">
<path d="M178.682 141.319C148.95 126.926 144.211 104.704 144 103.056C143.745 101.059 143.456 99.4896 145.658 97.4587C147.782 95.4965 157.206 89.6638 159.82 87.8389C164.142 84.8171 166.046 81.8002 164.643 78.0916C163.662 75.526 161.273 74.5596 158.756 74.5596C157.962 74.5621 157.171 74.6509 156.396 74.8245C151.648 75.8547 147.037 78.2339 144.368 78.8765C144.047 78.9592 143.718 79.0037 143.387 79.009C141.964 79.009 141.425 78.3762 141.562 76.6641C141.896 71.4741 142.602 61.3441 141.783 51.8814C140.659 38.8621 136.46 32.4113 131.481 26.7061C129.073 23.9394 117.888 12.0533 96.3036 12.0533C74.7193 12.0533 63.5494 23.9394 61.1555 26.6718C56.1616 32.3769 51.9674 38.8277 50.8538 51.847C50.0346 61.3098 50.7704 71.4348 51.0746 76.6298C51.1727 78.2584 50.6723 78.9746 49.2497 78.9746C48.9186 78.969 48.5894 78.9245 48.2686 78.8422C45.6049 78.1996 40.9937 75.8204 36.2452 74.7902C35.4706 74.6166 34.6794 74.5277 33.8856 74.5253C31.3592 74.5253 28.9801 75.5064 27.9989 78.0573C26.596 81.7659 28.4895 84.7828 32.826 87.8046C35.4406 89.6294 44.8642 95.4572 46.9883 97.4243C49.186 99.4552 48.9014 101.025 48.6464 103.022C48.4354 104.694 43.6918 126.916 13.9642 141.285C12.2227 142.128 9.2598 143.914 14.4842 146.799C22.6863 151.331 28.1461 150.846 32.3894 153.578C35.9901 155.898 33.8611 160.902 36.4806 162.707C39.6987 164.929 49.2105 162.55 61.4989 166.607C71.8005 170.002 78.0599 179.592 96.3281 179.592C114.596 179.592 121.037 169.958 131.157 166.607C143.421 162.55 152.953 164.929 156.176 162.707C158.79 160.902 156.666 155.898 160.267 153.578C164.51 150.846 169.965 151.331 178.172 146.799C183.387 143.948 180.424 142.163 178.682 141.319Z" fill="white"/>
<path d="M191.618 139.627C190.284 135.997 187.743 134.054 184.849 132.445C184.304 132.126 183.804 131.871 183.377 131.675C182.514 131.228 181.631 130.797 180.753 130.341C171.731 125.558 164.687 119.524 159.801 112.372C158.413 110.358 157.21 108.224 156.205 105.994C155.788 104.802 155.808 104.125 156.107 103.507C156.404 103.031 156.796 102.622 157.26 102.305C158.81 101.28 160.409 100.24 161.493 99.5387C163.426 98.2878 164.957 97.2969 165.943 96.5954C169.646 94.0052 172.237 91.2532 173.855 88.1775C174.985 86.0524 175.643 83.7091 175.787 81.3068C175.93 78.9045 175.554 76.4996 174.684 74.2556C172.232 67.7999 166.134 63.7921 158.746 63.7921C157.188 63.7906 155.634 63.955 154.111 64.2826C153.703 64.3709 153.296 64.4641 152.899 64.5671C152.968 60.1521 152.869 55.4919 152.477 50.9052C151.084 34.7807 145.438 26.3285 139.551 19.5883C135.781 15.3646 131.341 11.7912 126.409 9.01195C117.476 3.91019 107.346 1.32007 96.3037 1.32007C85.2614 1.32007 75.1805 3.91019 66.2377 9.01195C61.2935 11.7921 56.8444 15.3726 53.0712 19.6079C47.1846 26.3481 41.5383 34.8151 40.1452 50.9248C39.7527 55.5115 39.6546 60.1963 39.7184 64.5868C39.321 64.4837 38.9188 64.3905 38.5116 64.3022C36.9882 63.9747 35.4342 63.8102 33.8759 63.8117C26.4832 63.8117 20.3758 67.8195 17.9329 74.2752C17.0597 76.5202 16.68 78.9269 16.8197 81.3317C16.9593 83.7365 17.6151 86.083 18.7423 88.2118C20.366 91.2876 22.9562 94.0396 26.6598 96.6297C27.6409 97.3165 29.1764 98.3074 31.1092 99.573C32.154 100.25 33.6797 101.241 35.1758 102.232C35.6993 102.57 36.1443 103.017 36.4807 103.542C36.7947 104.184 36.8045 104.876 36.3385 106.151C35.3472 108.334 34.1636 110.424 32.8016 112.396C28.0236 119.386 21.1853 125.312 12.4534 130.056C7.82749 132.509 3.02006 134.147 0.989173 139.666C-0.541354 143.831 0.459374 148.57 4.34946 152.563C5.77716 154.053 7.43307 155.307 9.255 156.276C13.0459 158.359 17.077 159.972 21.2588 161.079C22.1218 161.301 22.9411 161.668 23.6822 162.163C25.0999 163.404 24.8988 165.273 26.7874 168.01C27.7354 169.425 28.9401 170.649 30.339 171.621C34.3027 174.358 38.7569 174.53 43.476 174.711C47.7389 174.873 52.5709 175.059 58.0896 176.879C60.3756 177.635 62.7499 179.097 65.5019 180.804C72.1096 184.866 81.1554 190.424 96.2939 190.424C111.432 190.424 120.542 184.836 127.199 180.76C129.931 179.082 132.291 177.635 134.513 176.899C140.032 175.074 144.864 174.893 149.127 174.731C153.846 174.549 158.3 174.378 162.264 171.64C163.92 170.485 165.301 168.977 166.306 167.225C167.665 164.915 167.63 163.301 168.906 162.173C169.601 161.701 170.37 161.35 171.182 161.133C175.421 160.023 179.507 158.395 183.348 156.286C185.283 155.247 187.026 153.883 188.498 152.254L188.547 152.195C192.197 148.29 193.114 143.689 191.618 139.627ZM178.162 146.857C169.955 151.39 164.5 150.905 160.257 153.637C156.652 155.957 158.786 160.961 156.166 162.766C152.948 164.988 143.436 162.609 131.148 166.666C121.013 170.017 114.547 179.651 96.3184 179.651C78.0895 179.651 71.776 170.036 61.4744 166.642C49.2106 162.585 39.6791 164.964 36.4562 162.742C33.8415 160.936 35.9656 155.933 32.365 153.612C28.1168 150.88 22.6618 151.366 14.4598 146.857C9.23538 143.973 12.1983 142.187 13.9398 141.344C43.6673 126.951 48.411 104.729 48.6219 103.08C48.877 101.084 49.1615 99.5142 46.9638 97.4833C44.8398 95.5211 35.4162 89.6884 32.8016 87.8635C28.4749 84.8417 26.5715 81.8248 27.9745 78.1162C28.9556 75.5506 31.3495 74.5842 33.8612 74.5842C34.655 74.5867 35.4461 74.6755 36.2207 74.8491C40.9693 75.8793 45.5805 78.2585 48.2442 78.9011C48.5649 78.9834 48.8942 79.0279 49.2253 79.0336C50.6479 79.0336 51.1483 78.3174 51.0502 76.6887C50.746 71.4938 50.0102 61.3687 50.8294 51.9059C51.9528 38.8867 56.147 32.4359 61.131 26.7307C63.5249 23.9885 74.7733 12.1024 96.2841 12.1024C117.795 12.1024 129.073 23.9395 131.467 26.6719C136.456 32.377 140.655 38.8278 141.768 51.8471C142.587 61.3099 141.881 71.4398 141.547 76.6298C141.435 78.3419 141.95 78.9747 143.372 78.9747C143.703 78.9694 144.033 78.9249 144.353 78.8422C147.022 78.1996 151.633 75.8204 156.382 74.7903C157.156 74.6166 157.948 74.5278 158.741 74.5254C161.268 74.5254 163.647 75.5065 164.628 78.0574C166.031 81.7659 164.137 84.7828 159.806 87.8046C157.191 89.6295 147.768 95.4573 145.644 97.4244C143.441 99.4553 143.73 101.025 143.986 103.022C144.196 104.694 148.935 126.916 178.668 141.285C180.424 142.163 183.387 143.949 178.162 146.857Z" fill="black"/>
</g>
<defs>
<clipPath id="clip0">
<rect width="192" height="192" fill="white"/>
</clipPath>
</defs>
</svg>
