<svg width="192" height="192" viewBox="0 0 192 192" fill="none" xmlns="http://www.w3.org/2000/svg">
<g clip-path="url(#clip0)">
<path d="M190.005 87.856L150.166 18.8474C148.607 16.4408 146.495 14.4426 144.005 13.0198C141.516 11.5971 138.722 10.7913 135.857 10.6698H106.154C105.882 10.6303 105.605 10.6303 105.333 10.6698H56.1324C53.2671 10.79 50.473 11.5986 47.9863 13.0271C45.4996 14.4556 43.3936 16.4621 41.8465 18.8767L1.99592 87.856C0.68456 90.4066 0.000488281 93.2331 0.000488281 96.101C0.000488281 98.969 0.68456 101.796 1.99592 104.346L41.8582 173.39C43.4049 175.805 45.5084 177.814 47.9922 179.248C50.4759 180.682 53.2674 181.5 56.1324 181.632H135.857C138.724 181.502 141.518 180.685 144.004 179.251C146.49 177.817 148.595 175.807 150.143 173.39L190.005 104.346C191.316 101.796 192 98.969 192 96.101C192 93.2331 191.316 90.4066 190.005 87.856ZM145.207 21.7198L159.757 46.9268L134.268 90.5467L117.585 61.9748C117.333 61.5451 116.974 61.1886 116.542 60.9408C116.11 60.6929 115.621 60.5624 115.123 60.5621H82.0077L107.367 16.3853H135.857C137.713 16.5104 139.516 17.0543 141.131 17.9761C142.747 18.898 144.132 20.174 145.183 21.7081L145.207 21.7198ZM97.8119 93.4719L81.9256 66.2718H113.493L129.391 93.466L97.8119 93.4719ZM92.6239 96.2329L76.9194 123.134L61.1562 96.104L76.8549 69.2028L92.6239 96.2329ZM97.6477 99.2226H129.051L113.452 125.96H81.9256L97.6477 99.2226ZM46.8351 21.7198C47.8842 20.1939 49.2661 18.9261 50.8767 18.0121C52.4872 17.0982 54.2843 16.562 56.1324 16.4439H100.737L75.4069 60.5621H24.4067L46.8351 21.7198ZM6.97284 90.7284L21.0829 66.2718H71.9307L55.341 94.6502C55.0839 95.0883 54.9483 95.5871 54.9483 96.0952C54.9483 96.6032 55.0839 97.102 55.341 97.5402L71.9307 125.954H21.0829L6.95525 101.521C6.14423 99.8404 5.72301 97.9989 5.72301 96.1333C5.72301 94.2677 6.14423 92.4261 6.95525 90.746L6.97284 90.7284ZM56.1324 175.893C54.2712 175.761 52.4644 175.207 50.8486 174.273C49.2329 173.34 47.8504 172.052 46.8058 170.506L24.3657 131.669H75.2135L100.796 175.893H56.1324ZM145.178 170.506C144.134 172.051 142.752 173.339 141.137 174.272C139.523 175.205 137.717 175.76 135.857 175.893H107.432L81.8435 131.652H115.082C115.58 131.651 116.069 131.521 116.501 131.273C116.933 131.025 117.292 130.669 117.544 130.239L134.098 101.913L159.551 145.633L145.178 170.506ZM185.04 101.462L162.869 139.894L137.51 96.3091L163.075 52.6131L185.081 90.7167C185.892 92.3968 186.313 94.2384 186.313 96.104C186.313 97.9696 185.892 99.8111 185.081 101.491" fill="#41308C"/>
</g>
<defs>
<clipPath id="clip0">
<rect width="192" height="192" fill="white"/>
</clipPath>
</defs>
</svg>
