<svg width="192" height="192" viewBox="0 0 192 192" fill="none" xmlns="http://www.w3.org/2000/svg">
<g clip-path="url(#clip0)">
<path d="M169.268 105.385C167.44 105.391 165.619 105.617 163.845 106.057C160.539 93.0587 153.564 81.2857 143.752 72.1426C133.939 62.9995 121.703 56.8724 108.504 54.4922C107.297 54.2767 106.211 54.1129 104.978 53.9577C105.185 47.3537 105.486 39.7237 115.203 32.861L113.668 28.99C113.668 28.99 94.701 34.8698 92.5542 51.0695C91.6145 46.6639 82.7861 41.1462 78.4151 40.103L76.2425 43.6119C76.2425 43.6119 82.0361 46.5087 83.45 54.5008C70.2516 56.8732 58.014 62.9919 48.197 72.1272C38.38 81.2624 31.3978 93.0287 28.0831 106.023C24.6194 105.165 21.0023 105.138 17.5259 105.942C14.0495 106.746 10.8119 108.359 8.07645 110.65C5.34101 112.941 3.18491 115.846 1.78348 119.127C0.382043 122.409 -0.225159 125.975 0.0112498 129.535C0.247658 133.095 1.321 136.55 3.144 139.617C4.96699 142.685 7.48817 145.278 10.5025 147.188C13.5169 149.097 16.9393 150.268 20.4916 150.606C24.0438 150.943 27.6255 150.437 30.9454 149.13C32.8795 153.957 35.3492 158.552 38.3081 162.829L57.1287 150.147L56.9649 149.94C51.9904 143.543 48.947 134.128 48.4297 124.757C47.8693 114.411 50.3868 104.152 56.9908 98.1167C70.604 86.5295 85.4415 91.8144 94.701 102.919H97.1926C106.478 91.8144 121.333 86.5381 134.903 98.1167C141.498 104.152 144.024 114.42 143.464 124.757C142.955 134.128 139.912 143.543 134.929 149.94L134.765 150.147L153.585 162.829C156.55 158.553 159.026 153.958 160.965 149.13C164.069 150.356 167.405 150.882 170.735 150.67C174.065 150.458 177.308 149.514 180.231 147.904C183.154 146.294 185.685 144.058 187.644 141.357C189.603 138.656 190.942 135.555 191.564 132.277C192.186 128.998 192.077 125.623 191.244 122.391C190.411 119.16 188.874 116.153 186.744 113.584C184.614 111.015 181.944 108.948 178.923 107.531C175.902 106.113 172.605 105.38 169.268 105.385ZM22.2464 134.697C20.472 134.697 18.7704 133.993 17.5157 132.738C16.261 131.483 15.5562 129.782 15.5562 128.007C15.5562 126.233 16.261 124.531 17.5157 123.276C18.7704 122.022 20.472 121.317 22.2464 121.317C23.5833 121.322 24.8886 121.724 25.9967 122.472C26.0534 125.985 26.2923 129.493 26.7123 132.982C25.4859 134.106 23.8844 134.733 22.2205 134.741L22.2464 134.697ZM169.673 134.697C168.023 134.693 166.432 134.079 165.207 132.973C165.627 129.485 165.866 125.977 165.923 122.464C166.928 121.782 168.101 121.387 169.314 121.321C170.527 121.256 171.735 121.523 172.808 122.093C173.881 122.663 174.779 123.515 175.403 124.557C176.028 125.599 176.357 126.792 176.355 128.007C176.363 128.889 176.196 129.763 175.864 130.579C175.532 131.396 175.042 132.139 174.422 132.765C173.801 133.391 173.063 133.888 172.249 134.227C171.436 134.566 170.563 134.741 169.682 134.741L169.673 134.697Z" fill="#00BF6F"/>
</g>
<defs>
<clipPath id="clip0">
<rect width="192" height="192" fill="white"/>
</clipPath>
</defs>
</svg>
