<svg width="192" height="192" viewBox="0 0 192 192" fill="none" xmlns="http://www.w3.org/2000/svg">
<g clip-path="url(#clip0)">
<path d="M173.034 21.8205L141.075 0.494171L109.116 21.8205V134.906H134.745V34.297L140.89 30.0551L147.344 34.297V133.615C147.344 154.819 140.89 176.269 116.614 191.204C141.198 191.204 171.928 163.362 172.972 127.285V21.8205H173.034Z" fill="#F2662F"/>
<path d="M70.7026 68.346C77.7628 68.346 83.4861 62.6221 83.4861 55.5619C83.4861 48.5017 77.7628 42.7778 70.7026 42.7778C63.6424 42.7778 57.9189 48.5017 57.9189 55.5619C57.9189 62.6221 63.6424 68.346 70.7026 68.346Z" fill="#F2662F"/>
<path d="M70.7026 33.7433C77.7628 33.7433 83.4861 28.0194 83.4861 20.9592C83.4861 13.899 77.7628 8.17659 70.7026 8.17659C63.6424 8.17659 57.9189 13.899 57.9189 20.9592C57.9189 28.0194 63.6424 33.7433 70.7026 33.7433Z" fill="#F2662F"/>
<path d="M32.2905 68.346C39.3507 68.346 45.074 62.6221 45.074 55.5619C45.074 48.5017 39.3507 42.7778 32.2905 42.7778C25.2303 42.7778 19.5068 48.5017 19.5068 55.5619C19.5068 62.6221 25.2303 68.346 32.2905 68.346Z" fill="#F2662F"/>
<path d="M32.2905 33.7437C39.3507 33.7437 45.074 28.0198 45.074 20.9596C45.074 13.8994 39.3507 8.17697 32.2905 8.17697C25.2303 8.17697 19.5068 13.8994 19.5068 20.9596C19.5068 28.0198 25.2303 33.7437 32.2905 33.7437Z" fill="#F2662F"/>
<path d="M109.116 134.906C109.097 140.018 107.854 145.051 105.491 149.585C103.128 154.119 99.7134 158.021 95.5335 160.965C91.6847 157.801 88.5858 153.823 86.4603 149.316C84.3347 144.81 83.2354 139.888 83.2415 134.906V128.452C83.2415 122.306 77.0956 115.669 77.0956 109.278C77.8924 104.556 79.5819 100.03 82.0738 95.9412C83.0531 94.0412 83.5591 91.9328 83.5488 89.7953C83.5488 86.4048 82.202 83.1523 79.8046 80.7549C77.4072 78.3575 74.1556 77.0112 70.7652 77.0112C67.3748 77.0112 64.1232 78.3575 61.7259 80.7549C59.3285 83.1523 57.9816 86.4048 57.9816 89.7953C57.9084 91.9396 58.4182 94.0637 59.4567 95.9412C61.9485 100.03 63.6381 104.556 64.4349 109.278C64.4349 115.423 57.9816 121.999 57.9816 128.452V134.906C57.8779 145.92 61.2786 156.681 67.6922 165.636C61.1357 163.607 55.4045 159.526 51.3435 153.993C47.2824 148.461 45.1065 141.769 45.1365 134.906V128.452C45.1365 122.306 38.9906 115.669 38.9906 109.278C39.768 104.551 41.4589 100.021 43.9688 95.9412C44.9268 94.0359 45.4117 91.9277 45.3823 89.7953C45.158 86.566 43.7169 83.5408 41.35 81.3326C38.983 79.1243 35.8665 77.8965 32.6295 77.8965C29.3924 77.8965 26.2758 79.1243 23.9089 81.3326C21.5419 83.5408 20.1009 86.566 19.8766 89.7953C19.8053 91.932 20.2925 94.0504 21.2901 95.9412C23.782 100.03 25.4715 104.556 26.2684 109.278C26.2684 115.423 20.1224 121.999 20.1224 128.452V134.906C20.1224 150.179 26.1897 164.827 36.9895 175.627C47.7893 186.427 62.437 192.494 77.7102 192.494C92.9834 192.494 107.631 186.427 118.431 175.627C129.231 164.827 135.298 150.179 135.298 134.906H109.116Z" fill="#F2662F"/>
</g>
<defs>
<clipPath id="clip0">
<rect width="192" height="192" fill="white"/>
</clipPath>
</defs>
</svg>
