<svg width="192" height="192" viewBox="0 0 192 192" fill="none" xmlns="http://www.w3.org/2000/svg">
<path d="M187.76 54L177.296 76.4367L173.34 67.924H169.067L175.56 81.8479H179.014L192 54.0038V54H187.76Z" fill="#E02826"/>
<path d="M142.768 95.664H151.22V80.2226C151.22 76.7013 153.278 74.2095 156.311 74.2095C159.237 74.2095 160.755 76.2674 160.755 79.1937V95.664H169.208V77.5674C169.208 71.4463 165.524 67.1113 159.564 67.1113C155.77 67.1113 153.117 68.7377 151.112 71.7174H150.949V67.9233H142.768V95.664ZM126.188 67.1641C117.356 67.1641 111.451 73.5043 111.451 81.8483C111.451 90.1377 117.356 96.5319 126.188 96.5319C135.018 96.5319 140.925 90.1377 140.925 81.8483C140.925 73.5045 135.019 67.1641 126.188 67.1641ZM126.134 90.3011C122.123 90.3011 120.012 86.9411 120.012 81.8486C120.012 76.7013 122.123 73.3947 126.134 73.3947C130.143 73.3947 132.366 76.7015 132.366 81.8486C132.366 86.9411 130.143 90.3011 126.134 90.3011ZM87.3951 95.664H111.127V88.9991H97.6886V88.838L110.531 74.4265V67.9233H87.3953V74.5878H100.398V74.7508L87.3953 89.2721V95.664H87.3951ZM76.5585 95.664H85.0641V67.9233H76.5585V95.664ZM56.836 95.664H65.2881V82.9323C65.2881 77.136 68.7548 74.5878 74.0636 75.292H74.2266V67.9788C73.7933 67.8158 73.3062 67.7614 72.4936 67.7614C69.1893 67.7614 66.9677 69.2788 65.0711 72.529H64.9079V67.9233H56.836V95.664ZM41.2856 90.3539C37.5473 90.3539 35.2725 87.9162 34.8382 84.1776H54.8314C54.8851 78.2181 53.3151 73.4506 50.0083 70.4707C47.6792 68.3032 44.5903 67.1109 40.69 67.1109C32.3461 67.1109 26.548 73.4506 26.548 81.7392C26.548 90.083 32.0759 96.4769 41.2316 96.4769C44.6997 96.4769 47.4622 95.5553 49.7382 93.9838C52.1762 92.3057 53.91 89.8666 54.3982 87.4291H46.2699C45.4579 89.2719 43.7775 90.3539 41.2856 90.3539ZM40.852 73.1804C43.8317 73.1804 45.8913 75.4009 46.2159 78.6517H34.892C35.5425 75.3462 37.3304 73.1804 40.852 73.1804ZM9.64416 95.664H18.5299L28.1741 67.9235H19.6681L14.2504 85.7491H14.1402L8.72294 67.9233H0L9.64416 95.664ZM76.5585 58.0614H85.0641V65.5922H76.5585V58.0614Z" fill="black"/>
<path d="M5.36407 109.488H13.8253V113.447H13.9881C15.7238 110.573 18.3815 108.674 22.3952 108.674C26.0292 108.674 28.7954 110.573 30.2056 113.556H30.3141C32.4837 110.193 35.4668 108.674 39.0464 108.674C45.3383 108.674 48.484 112.959 48.484 119.197V137.258H39.6432V120.77C39.6432 117.787 38.3956 116.051 35.7377 116.051C32.9174 116.051 31.3444 118.383 31.3444 121.692V137.258H22.5033V120.77C22.5033 117.787 21.2559 116.051 18.5981 116.051C15.8319 116.051 14.2047 118.383 14.2047 121.692V137.258H5.36407V109.488ZM50.3817 123.319C50.3817 115.02 56.1853 108.674 64.6466 108.674C68.606 108.674 71.7521 109.976 74.1387 112.146C77.4472 115.183 79.0742 120.011 79.0203 125.651H59.06C59.6022 129.394 61.6635 131.726 65.2975 131.726C67.6297 131.726 69.1486 130.696 69.908 128.96H78.5318C77.9353 131.455 76.3079 133.842 73.8672 135.523C71.535 137.15 68.7145 138.072 65.189 138.072C56.0227 138.072 50.3817 131.726 50.3817 123.319ZM70.0706 120.39C69.7451 117.082 67.684 114.966 64.8094 114.966C61.4465 114.966 59.7108 117.082 59.1143 120.39H70.0706ZM113.19 99.6543H122.031V107.231H113.19V99.6543ZM113.19 109.488H122.031V137.258H113.19V109.488ZM124.146 129.502C124.146 123.373 129.028 121.529 134.777 120.77C139.984 120.119 141.828 119.577 141.828 117.678C141.828 115.888 140.689 114.695 138.032 114.695C135.211 114.695 133.801 115.942 133.53 118.275H125.394C125.611 113.122 129.57 108.728 137.977 108.728C142.154 108.728 144.974 109.488 146.981 111.007C149.368 112.742 150.507 115.454 150.507 118.925V132.919C150.507 135.143 150.724 136.39 151.483 136.879V137.258H142.913C142.479 136.662 142.208 135.577 141.991 134.167H141.883C140.255 136.499 137.815 137.963 133.638 137.963C128.106 137.964 124.146 134.98 124.146 129.502ZM142.045 127.333V124.024C140.906 124.621 139.279 125.055 137.489 125.489C134.072 126.248 132.662 127.116 132.662 129.231C132.662 131.455 134.289 132.323 136.458 132.323C139.767 132.323 142.045 130.316 142.045 127.333ZM100.932 99.6543V112.634H100.769C99.1423 110.302 96.9185 108.674 93.0132 108.674C85.8539 108.674 80.8639 114.695 80.8639 123.373C80.8639 132.648 85.9079 138.127 93.0132 138.127C96.6474 138.127 99.522 136.391 101.203 133.516H101.312V137.258H109.773V99.6543H100.932ZM95.2915 131.129C91.8745 131.129 89.8135 128.092 89.8135 123.265C89.8135 118.6 91.8745 115.346 95.4002 115.346C99.2511 115.346 101.15 118.709 101.15 123.373C101.149 127.93 98.9798 131.129 95.2915 131.129Z" fill="black"/>
</svg>
