<svg width="192" height="192" viewBox="0 0 192 192" fill="none" xmlns="http://www.w3.org/2000/svg">
<g clip-path="url(#clip0)">
<path d="M124.692 29.9309H137.435C146.713 30.7841 156.045 31.4239 165.322 32.5436C170.797 32.7488 176.022 34.8844 180.073 38.5735C184.123 42.2627 186.737 47.2674 187.451 52.6992C192.863 81.9555 192.863 111.956 187.451 141.212C186.518 146.167 183.992 150.683 180.258 154.071C176.523 157.459 171.784 159.534 166.762 159.981C156.098 161.207 145.434 161.847 134.769 162.7H59.5862C48.5487 161.847 37.5645 161.421 26.6337 160.195C20.3971 160.084 14.4325 157.622 9.93382 153.302C5.43515 148.981 2.73452 143.121 2.37254 136.894C-0.461032 117.138 -1.19386 97.1365 0.186345 77.2263C0.404001 68.983 1.34968 60.776 3.01237 52.6992C3.97531 47.1724 6.79195 42.1372 10.9984 38.4251C15.2048 34.713 20.5501 32.5449 26.1538 32.2768C38.6843 30.6238 50.2551 30.4106 62.359 29.6641H124.798L124.692 29.9309Z" fill="#FE0000"/>
<path d="M76.3831 67.8419L126.078 96.4227L76.3831 125.109V67.8419Z" fill="#FEFEFE"/>
</g>
<defs>
<clipPath id="clip0">
<rect width="192" height="192" fill="white"/>
</clipPath>
</defs>
</svg>
