<svg width="192" height="192" viewBox="0 0 192 192" fill="none" xmlns="http://www.w3.org/2000/svg">
<g clip-path="url(#clip0)">
<path d="M88.4301 62.1444V169.221H-0.259766L88.4301 62.1444Z" fill="#03363D"/>
<path d="M88.4301 23.71C88.4301 35.471 83.7581 46.7503 75.4418 55.0666C67.1255 63.3829 55.8462 68.0549 44.0852 68.0549C32.3242 68.0549 21.0448 63.3829 12.7286 55.0666C4.41227 46.7503 -0.259766 35.471 -0.259766 23.71H88.4301Z" fill="#03363D"/>
<path d="M103.041 169.221C103.041 157.46 107.713 146.181 116.029 137.864C124.346 129.548 135.625 124.876 147.386 124.876C159.147 124.876 170.426 129.548 178.742 137.864C187.059 146.181 191.731 157.46 191.731 169.221H103.041Z" fill="#03363D"/>
<path d="M103.041 130.787V23.71H191.74L103.041 130.787Z" fill="#03363D"/>
</g>
<defs>
<clipPath id="clip0">
<rect width="192" height="192" fill="white"/>
</clipPath>
</defs>
</svg>
