<svg width="192" height="192" viewBox="0 0 192 192" fill="none" xmlns="http://www.w3.org/2000/svg">
<g clip-path="url(#clip0)">
<path d="M103.691 84.7131C101.411 84.7131 99.1809 85.3895 97.2844 86.6567C95.3879 87.9239 93.9098 89.7253 93.037 91.8326C92.1641 93.9399 91.9357 96.258 92.3807 98.4951C92.8257 100.732 93.924 102.787 95.5369 104.4C97.1497 106.013 99.2046 107.111 101.442 107.556C103.679 108.001 105.997 107.773 108.105 106.9C110.212 106.027 112.013 104.549 113.28 102.653C114.548 100.756 115.224 98.5263 115.224 96.2455C115.224 93.1869 114.009 90.2535 111.846 88.0908C109.683 85.928 106.75 84.7131 103.691 84.7131ZM103.691 117.234C99.5614 117.242 95.522 116.024 92.0843 113.735C88.6466 111.446 85.9652 108.189 84.3794 104.376C82.7936 100.562 82.3748 96.3638 83.1758 92.3122C83.9769 88.2606 85.9619 84.5372 88.8796 81.6141C91.7973 78.691 95.5165 76.6996 99.5666 75.8911C103.617 75.0826 107.816 75.4939 111.632 77.0727C115.449 78.6514 118.711 81.3265 121.006 84.76C123.301 88.1935 124.527 92.2308 124.527 96.3609C124.517 101.887 122.319 107.184 118.415 111.095C114.511 115.007 109.218 117.214 103.691 117.234Z" fill="#334151"/>
<path d="M44.4528 75.3714H50.7956C50.994 75.3661 51.1912 75.4012 51.3755 75.4747C51.5598 75.5481 51.7272 75.6582 51.8675 75.7984C52.0078 75.9387 52.118 76.1059 52.1915 76.2902C52.265 76.4745 52.3001 76.6719 52.2948 76.8702V99.0509C52.2948 104.125 53.6019 107.777 58.7914 107.777C66.2875 107.777 70.0547 103.549 70.0547 93.4771V77.0241C70.0546 76.824 70.0946 76.6258 70.1724 76.4413C70.2501 76.2569 70.364 76.0902 70.5073 75.9505C70.6506 75.8107 70.8204 75.7007 71.0068 75.6276C71.1932 75.5546 71.3922 75.5202 71.5923 75.5253H77.8583C78.0566 75.52 78.2539 75.5551 78.4382 75.6286C78.6225 75.702 78.7899 75.8121 78.9302 75.9524C79.0704 76.0926 79.1806 76.2598 79.2541 76.4441C79.3276 76.6284 79.3628 76.8258 79.3575 77.0241V115.465C79.3626 115.665 79.3276 115.865 79.2546 116.051C79.1815 116.237 79.0719 116.407 78.9322 116.55C78.7925 116.694 78.6255 116.808 78.441 116.885C78.2566 116.963 78.0584 117.003 77.8583 117.003H71.5923C71.1845 117.003 70.7934 116.841 70.5051 116.553C70.2167 116.265 70.0547 115.873 70.0547 115.465V111.621C68.0173 115.965 63.0968 117.003 55.9852 117.003C47.0668 117.003 42.9536 112.505 42.9536 101.127V77.0241C42.9483 76.8258 42.9835 76.6284 43.0569 76.4441C43.1304 76.2598 43.2406 76.0926 43.3809 75.9524C43.5212 75.8121 43.6886 75.702 43.8729 75.6286C44.0572 75.5551 44.2545 75.52 44.4528 75.5253" fill="#334151"/>
<path d="M129.563 75.3719H135.829C136.029 75.3667 136.228 75.4011 136.414 75.4742C136.6 75.5472 136.77 75.6573 136.914 75.797C137.057 75.9368 137.171 76.1034 137.248 76.2879C137.326 76.4723 137.366 76.6705 137.366 76.8707V80.7148C137.366 80.7148 138.635 75.3718 150.129 75.2949C151.782 75.2949 151.974 76.025 151.859 76.9476L151.051 83.4825C151.052 83.6809 151.011 83.8772 150.933 84.0596C150.855 84.2421 150.74 84.4072 150.597 84.5439C150.453 84.6806 150.282 84.7868 150.096 84.8555C149.91 84.9242 149.712 84.9542 149.514 84.9437H148.591C144.17 84.9437 140.211 87.8648 138.25 94.0923C137.595 96.2995 137.284 98.5945 137.328 100.896V115.466C137.333 115.666 137.298 115.865 137.225 116.051C137.152 116.238 137.042 116.407 136.902 116.551C136.763 116.694 136.596 116.808 136.411 116.886C136.227 116.964 136.029 117.003 135.829 117.003H129.563C129.155 117.003 128.764 116.842 128.475 116.554C128.187 116.265 128.025 115.874 128.025 115.466V77.0246C128.025 76.8244 128.065 76.6262 128.143 76.4418C128.22 76.2573 128.334 76.0907 128.478 75.9509C128.621 75.8112 128.791 75.7011 128.977 75.6281C129.163 75.5551 129.363 75.5207 129.563 75.5258" fill="#334151"/>
<path d="M159.932 96.2446C159.932 93.1861 161.147 90.2527 163.309 88.0899C165.472 85.9272 168.405 84.7123 171.464 84.7123C174.523 84.7123 177.456 85.9272 179.619 88.0899C181.781 90.2527 182.996 93.1861 182.996 96.2446C182.996 99.3032 181.781 102.237 179.619 104.399C177.456 106.562 174.523 107.777 171.464 107.777C168.405 107.777 165.472 106.562 163.309 104.399C161.147 102.237 159.932 99.3032 159.932 96.2446ZM192.491 95.4375C192.306 90.3772 190.268 85.5614 186.764 81.9061C183.639 78.5878 179.52 76.3768 175.028 75.6069C170.536 74.8369 165.915 75.5494 161.864 77.6378C157.813 79.7262 154.552 83.0766 152.574 87.1824C150.595 91.2882 150.007 95.9269 150.898 100.397C155.511 121.424 178.883 119.617 183.15 111.66V115.504C183.189 115.935 183.388 116.337 183.708 116.629C184.029 116.921 184.447 117.081 184.88 117.079H190.915C191.121 117.08 191.324 117.039 191.513 116.959C191.702 116.88 191.873 116.763 192.016 116.616C192.16 116.469 192.272 116.295 192.347 116.104C192.422 115.913 192.458 115.709 192.453 115.504V95.4375" fill="#334151"/>
<path d="M43.8768 116.042C41.8553 113.921 40.5162 111.243 40.0326 108.354C39.9981 108.229 39.9224 108.119 39.8178 108.042C39.7131 107.965 39.5857 107.927 39.456 107.931H18.0442C17.9302 107.938 17.8169 107.91 17.7186 107.852C17.6203 107.794 17.5415 107.708 17.4921 107.605C17.4427 107.502 17.4249 107.387 17.4411 107.274C17.4573 107.161 17.5067 107.055 17.583 106.97L39.1869 81.5219C39.4141 81.2536 39.537 80.9124 39.5329 80.5608V77.0245C39.5329 76.0635 38.764 75.5257 37.4186 75.5257H2.82147C2.3184 75.5358 1.83933 75.7426 1.48714 76.102C1.13496 76.4613 0.937782 76.9446 0.937883 77.4478V82.9831C0.932768 83.2337 0.977668 83.4822 1.07004 83.7151C1.1624 83.9481 1.30034 84.1612 1.47576 84.3402C1.65119 84.5192 1.86059 84.6608 2.09166 84.7578C2.32273 84.8549 2.57084 84.9052 2.82147 84.9052H22.8878C23.0018 84.8988 23.1151 84.9259 23.2134 84.984C23.3117 85.0421 23.3906 85.1279 23.44 85.2308C23.4894 85.3338 23.5072 85.4491 23.491 85.5621C23.4748 85.6751 23.4254 85.7813 23.3491 85.8662L3.70566 108.931C1.93736 110.968 0.130593 112.775 0.553447 115.158C0.672807 115.793 0.950482 116.389 1.36074 116.889C1.47199 117.037 1.61746 117.156 1.78477 117.237C1.95208 117.317 2.13629 117.355 2.32177 117.349H43.6461C43.7611 117.338 43.8705 117.295 43.962 117.225C44.0535 117.154 44.1233 117.059 44.1634 116.951C44.2035 116.842 44.2123 116.725 44.1888 116.612C44.1653 116.499 44.1104 116.395 44.0305 116.311" fill="#334151"/>
</g>
<defs>
<clipPath id="clip0">
<rect width="192" height="192" fill="white"/>
</clipPath>
</defs>
</svg>
