<?xml version="1.0" encoding="UTF-8" standalone="no"?>
<!-- Created with Inkscape (http://www.inkscape.org/) -->

<svg
   xmlns:dc="http://purl.org/dc/elements/1.1/"
   xmlns:cc="http://creativecommons.org/ns#"
   xmlns:rdf="http://www.w3.org/1999/02/22-rdf-syntax-ns#"
   xmlns:svg="http://www.w3.org/2000/svg"
   xmlns="http://www.w3.org/2000/svg"
   xmlns:sodipodi="http://sodipodi.sourceforge.net/DTD/sodipodi-0.dtd"
   xmlns:inkscape="http://www.inkscape.org/namespaces/inkscape"
   version="1.1"
   width="55"
   height="55"
   id="svg2"
   inkscape:version="0.48.2 r9819"
   sodipodi:docname="Square, Inc. logo.svg">
  <sodipodi:namedview
     pagecolor="#ffffff"
     bordercolor="#666666"
     borderopacity="1"
     objecttolerance="10"
     gridtolerance="10"
     guidetolerance="10"
     inkscape:pageopacity="0"
     inkscape:pageshadow="2"
     inkscape:window-width="1280"
     inkscape:window-height="945"
     id="namedview18"
     showgrid="false"
     inkscape:zoom="5.3422072"
     inkscape:cx="110.13092"
     inkscape:cy="27.5"
     inkscape:window-x="0"
     inkscape:window-y="27"
     inkscape:window-maximized="1"
     inkscape:current-layer="layer3" />
  <title
     id="title3166">Square, Inc. logo</title>
  <defs
     id="defs4">
    <clipPath
       id="clipPath3045">
      <path
         d="m 0,76.21 288,0 L 288,0 0,0 0,76.21 z"
         id="path3047" />
    </clipPath>
  </defs>
  <metadata
     id="metadata7">
    <rdf:RDF>
      <cc:Work
         rdf:about="">
        <dc:format>image/svg+xml</dc:format>
        <dc:type
           rdf:resource="http://purl.org/dc/dcmitype/StillImage" />
        <dc:title>Square, Inc. logo</dc:title>
        <dc:source>http://www.brandsoftheworld.com</dc:source>
        <dc:description>Original version converted from Adobe Illustrator file obtained at Brands of the World to SVG using Inkscape.  Revised 2016 version used proprietary SQMarket TrueType font, obtained from GitHub repository at https://github.com/square/square.github.io/tree/master/fonts, with kerning and weight tweaks applied to match the appearance of sample logo posted by Square, Inc. at their Web site.</dc:description>
        <dc:creator>
          <cc:Agent>
            <dc:title>Square, Inc.</dc:title>
          </cc:Agent>
        </dc:creator>
        <dc:publisher>
          <cc:Agent>
            <dc:title>Square, Inc.</dc:title>
          </cc:Agent>
        </dc:publisher>
        <dc:date>2017-06-15</dc:date>
        <dc:contributor>
          <cc:Agent>
            <dc:title>Hydrargyrum for Wikimedia Foundation</dc:title>
          </cc:Agent>
        </dc:contributor>
      </cc:Work>
    </rdf:RDF>
  </metadata>
  <g
     inkscape:groupmode="layer"
     id="layer3"
     inkscape:label="2016-rev"
     style="display:inline">
    <g
       id="g3486">
      <path
         d="m 45.33346,0.90101419 -35.4658353,0 c -4.875869,0 -8.86763036,3.99019941 -8.86763036,8.86763041 l 0,35.4658354 c 0,4.875088 3.99176136,8.864506 8.86763036,8.864506 l 35.4658353,0 c 4.875869,0 8.867631,-3.989418 8.867631,-8.864506 l 0,-35.4658354 c 0,-4.877431 -3.991762,-8.86763041 -8.867631,-8.86763041 M 44.527454,41.609795 c 0,1.549532 -1.269147,2.814774 -2.820241,2.814774 l -28.215684,0 c -1.550313,0 -2.81946,-1.265242 -2.81946,-2.814774 l 0,-28.214903 c 0,-1.550313 1.269147,-2.81946 2.81946,-2.81946 l 28.215684,0 c 1.551094,0 2.820241,1.269147 2.820241,2.81946 l 0,28.214903 z m -9.670513,-8.467751 c 0,0.889575 -0.725561,1.612793 -1.61045,1.612793 l -11.284087,0 c -0.887232,0 -1.61045,-0.723218 -1.61045,-1.612793 l 0,-11.283306 c 0,-0.886451 0.723218,-1.611232 1.61045,-1.611232 l 11.284087,0 c 0.884889,0 1.61045,0.724781 1.61045,1.611232 l 0,11.283306 z"
         id="path3010"
         style="fill:#000000;fill-opacity:1;fill-rule:nonzero;stroke:none"
         inkscape:connector-curvature="0" />
    </g>
  </g>
</svg>
